<svg xmlns="http://www.w3.org/2000/svg" xmlns:xlink="http://www.w3.org/1999/xlink" viewBox="0 0 230.2 112.76"><defs><style>.cls-1{isolation:isolate;}.cls-2{fill:url(#radial-gradient);}.cls-3{opacity:0.8;mix-blend-mode:screen;}.cls-4{fill:url(#linear-gradient);}.cls-5{fill:url(#linear-gradient-2);}.cls-11,.cls-12,.cls-13,.cls-14,.cls-15,.cls-16,.cls-29,.cls-30,.cls-31,.cls-32,.cls-33,.cls-34,.cls-35,.cls-6{opacity:0.5;}.cls-6{fill:url(#linear-gradient-3);}.cls-7{fill:url(#linear-gradient-4);}.cls-8{fill:url(#linear-gradient-5);}.cls-9{fill:url(#linear-gradient-6);}.cls-10{fill:url(#linear-gradient-7);}.cls-11{fill:url(#linear-gradient-8);}.cls-12{fill:url(#linear-gradient-9);}.cls-13{fill:url(#linear-gradient-10);}.cls-14{fill:url(#linear-gradient-11);}.cls-15{fill:url(#linear-gradient-12);}.cls-16{fill:url(#linear-gradient-13);}.cls-17{fill:url(#linear-gradient-14);}.cls-18{fill:url(#linear-gradient-15);}.cls-19{fill:url(#linear-gradient-16);}.cls-20{fill:url(#linear-gradient-17);}.cls-21{fill:url(#linear-gradient-18);}.cls-22{fill:url(#linear-gradient-19);}.cls-23{fill:url(#linear-gradient-20);}.cls-24{fill:url(#linear-gradient-21);}.cls-25{fill:url(#linear-gradient-22);}.cls-26{fill:url(#linear-gradient-23);}.cls-27{fill:url(#linear-gradient-24);}.cls-28{fill:url(#linear-gradient-25);}.cls-29{fill:url(#linear-gradient-26);}.cls-30{fill:url(#linear-gradient-27);}.cls-31{fill:url(#linear-gradient-28);}.cls-32{fill:url(#linear-gradient-29);}.cls-33{fill:url(#linear-gradient-30);}.cls-34{fill:url(#linear-gradient-31);}.cls-35{fill:url(#linear-gradient-32);}.cls-36{fill:url(#linear-gradient-33);}.cls-37{fill:url(#linear-gradient-34);}.cls-38{fill:url(#linear-gradient-35);}.cls-39{fill:url(#linear-gradient-36);}.cls-40{fill:url(#linear-gradient-37);}.cls-41{fill:url(#linear-gradient-38);}.cls-42{fill:url(#linear-gradient-39);}.cls-43{fill:url(#linear-gradient-40);}.cls-44{fill:url(#linear-gradient-41);}.cls-45{fill:url(#linear-gradient-42);}.cls-46{fill:url(#linear-gradient-43);}.cls-47{fill:url(#linear-gradient-44);}.cls-48{fill:url(#linear-gradient-45);}.cls-49{fill:url(#linear-gradient-46);}.cls-50{fill:url(#linear-gradient-47);}.cls-51{fill:url(#linear-gradient-48);}.cls-52{fill:url(#linear-gradient-49);}.cls-53{fill:url(#linear-gradient-50);}.cls-54{fill:url(#linear-gradient-51);}.cls-55{fill:url(#linear-gradient-52);}.cls-56{fill:url(#linear-gradient-53);}.cls-57{fill:url(#linear-gradient-54);}.cls-58{fill:url(#linear-gradient-55);}.cls-59{fill:url(#linear-gradient-56);}.cls-60{fill:url(#linear-gradient-57);}.cls-61{fill:url(#linear-gradient-58);}.cls-62{fill:url(#linear-gradient-59);}.cls-63{fill:url(#linear-gradient-60);}.cls-64{fill:url(#linear-gradient-61);}.cls-65{fill:url(#linear-gradient-62);}.cls-66{fill:url(#linear-gradient-63);}.cls-67{fill:url(#linear-gradient-64);}.cls-68{opacity:0.85;mix-blend-mode:multiply;fill:url(#radial-gradient-2);}</style><radialGradient id="radial-gradient" cx="-67.64" cy="171.53" r="134.71" gradientTransform="translate(189.1 -168.72) scale(1.11 0.96)" gradientUnits="userSpaceOnUse"><stop offset="0" stop-color="#019392"/><stop offset="0.57" stop-color="#01748a"/><stop offset="1" stop-color="#005064"/></radialGradient><linearGradient id="linear-gradient" x1="-432.13" y1="2.92" x2="-405.41" y2="2.92" gradientTransform="translate(650.07) scale(1.35 1)" gradientUnits="userSpaceOnUse"><stop offset="0.35" stop-color="#dbe9e9"/><stop offset="1" stop-color="#288da1"/></linearGradient><linearGradient id="linear-gradient-2" x1="-402.62" y1="4.56" x2="-393.95" y2="4.56" xlink:href="#linear-gradient"/><linearGradient id="linear-gradient-3" x1="-382.22" y1="2.7" x2="-376.37" y2="2.7" xlink:href="#linear-gradient"/><linearGradient id="linear-gradient-4" x1="-417.84" y1="2.63" x2="-407.58" y2="2.63" xlink:href="#linear-gradient"/><linearGradient id="linear-gradient-5" x1="-407.57" y1="5.08" x2="-390.47" y2="5.08" xlink:href="#linear-gradient"/><linearGradient id="linear-gradient-6" x1="-446.69" y1="4.66" x2="-438.83" y2="4.66" xlink:href="#linear-gradient"/><linearGradient id="linear-gradient-7" x1="-437.15" y1="2.99" x2="-428.76" y2="2.99" xlink:href="#linear-gradient"/><linearGradient id="linear-gradient-8" x1="-390.07" y1="3.38" x2="-383.93" y2="3.38" xlink:href="#linear-gradient"/><linearGradient id="linear-gradient-9" x1="-373.99" y1="3.08" x2="-365.58" y2="3.08" xlink:href="#linear-gradient"/><linearGradient id="linear-gradient-10" x1="-360.89" y1="4.27" x2="-348.68" y2="4.27" xlink:href="#linear-gradient"/><linearGradient id="linear-gradient-11" x1="-345.94" y1="4.14" x2="-342.1" y2="4.14" xlink:href="#linear-gradient"/><linearGradient id="linear-gradient-12" x1="-339.83" y1="3.34" x2="-338.48" y2="3.34" xlink:href="#linear-gradient"/><linearGradient id="linear-gradient-13" x1="-334.48" y1="3.02" x2="-327.14" y2="3.02" xlink:href="#linear-gradient"/><linearGradient id="linear-gradient-14" x1="-462.98" y1="3.69" x2="-451.47" y2="3.69" xlink:href="#linear-gradient"/><linearGradient id="linear-gradient-15" x1="-449.17" y1="4.13" x2="-447.19" y2="4.13" xlink:href="#linear-gradient"/><linearGradient id="linear-gradient-16" x1="-440.71" y1="4.74" x2="-434.35" y2="4.74" xlink:href="#linear-gradient"/><linearGradient id="linear-gradient-17" x1="-432.51" y1="3.66" x2="-422.28" y2="3.66" xlink:href="#linear-gradient"/><linearGradient id="linear-gradient-18" x1="-436.09" y1="5.12" x2="-430.33" y2="5.12" xlink:href="#linear-gradient"/><linearGradient id="linear-gradient-19" x1="-444.64" y1="6.06" x2="-442.91" y2="6.06" xlink:href="#linear-gradient"/><linearGradient id="linear-gradient-20" x1="-449.75" y1="5.12" x2="-445.41" y2="5.12" xlink:href="#linear-gradient"/><linearGradient id="linear-gradient-21" x1="-423.48" y1="1.2" x2="-420.25" y2="1.2" xlink:href="#linear-gradient"/><linearGradient id="linear-gradient-22" x1="-425.14" y1="3.75" x2="-418.9" y2="3.75" xlink:href="#linear-gradient"/><linearGradient id="linear-gradient-23" x1="-411.27" y1="5.19" x2="-406.98" y2="5.19" xlink:href="#linear-gradient"/><linearGradient id="linear-gradient-24" x1="-413.21" y1="4.94" x2="-392.12" y2="4.94" xlink:href="#linear-gradient"/><linearGradient id="linear-gradient-25" x1="-393.11" y1="6.23" x2="-389.88" y2="6.23" xlink:href="#linear-gradient"/><linearGradient id="linear-gradient-26" x1="-388.74" y1="3.56" x2="-379.69" y2="3.56" xlink:href="#linear-gradient"/><linearGradient id="linear-gradient-27" x1="-380.05" y1="3.4" x2="-372.44" y2="3.4" xlink:href="#linear-gradient"/><linearGradient id="linear-gradient-28" x1="-368.01" y1="4.17" x2="-358.99" y2="4.17" xlink:href="#linear-gradient"/><linearGradient id="linear-gradient-29" x1="-361.98" y1="4.93" x2="-355.73" y2="4.93" xlink:href="#linear-gradient"/><linearGradient id="linear-gradient-30" x1="-350.58" y1="5.51" x2="-345.31" y2="5.51" xlink:href="#linear-gradient"/><linearGradient id="linear-gradient-31" x1="-338.77" y1="3.96" x2="-337.54" y2="3.96" xlink:href="#linear-gradient"/><linearGradient id="linear-gradient-32" x1="-325.86" y1="3.83" x2="-322.51" y2="3.83" xlink:href="#linear-gradient"/><linearGradient id="linear-gradient-33" x1="-431.8" y1="2" x2="-405.08" y2="2" gradientTransform="translate(650.07) scale(1.35 1)" gradientUnits="userSpaceOnUse"><stop offset="0.03" stop-color="#dbe9e9"/><stop offset="0.58" stop-color="#288da1"/><stop offset="1" stop-color="#195383"/></linearGradient><linearGradient id="linear-gradient-34" x1="-402.28" y1="3.64" x2="-393.62" y2="3.64" xlink:href="#linear-gradient-33"/><linearGradient id="linear-gradient-35" x1="-381.89" y1="1.79" x2="-376.04" y2="1.79" xlink:href="#linear-gradient-33"/><linearGradient id="linear-gradient-36" x1="-417.51" y1="1.71" x2="-407.25" y2="1.71" xlink:href="#linear-gradient-33"/><linearGradient id="linear-gradient-37" x1="-407.24" y1="4.16" x2="-390.14" y2="4.16" xlink:href="#linear-gradient-33"/><linearGradient id="linear-gradient-38" x1="-446.36" y1="3.74" x2="-438.49" y2="3.74" xlink:href="#linear-gradient-33"/><linearGradient id="linear-gradient-39" x1="-436.82" y1="2.08" x2="-428.43" y2="2.08" xlink:href="#linear-gradient-33"/><linearGradient id="linear-gradient-40" x1="-389.74" y1="2.46" x2="-383.59" y2="2.46" xlink:href="#linear-gradient-33"/><linearGradient id="linear-gradient-41" x1="-373.66" y1="2.16" x2="-365.25" y2="2.16" xlink:href="#linear-gradient-33"/><linearGradient id="linear-gradient-42" x1="-360.56" y1="3.35" x2="-348.34" y2="3.35" xlink:href="#linear-gradient-33"/><linearGradient id="linear-gradient-43" x1="-345.61" y1="3.23" x2="-341.77" y2="3.23" xlink:href="#linear-gradient-33"/><linearGradient id="linear-gradient-44" x1="-339.5" y1="2.42" x2="-338.15" y2="2.42" xlink:href="#linear-gradient-33"/><linearGradient id="linear-gradient-45" x1="-334.15" y1="2.11" x2="-326.81" y2="2.11" xlink:href="#linear-gradient-33"/><linearGradient id="linear-gradient-46" x1="-462.65" y1="2.77" x2="-451.14" y2="2.77" xlink:href="#linear-gradient-33"/><linearGradient id="linear-gradient-47" x1="-448.84" y1="3.21" x2="-446.86" y2="3.21" xlink:href="#linear-gradient-33"/><linearGradient id="linear-gradient-48" x1="-440.37" y1="3.83" x2="-434.02" y2="3.83" xlink:href="#linear-gradient-33"/><linearGradient id="linear-gradient-49" x1="-432.18" y1="2.74" x2="-421.95" y2="2.74" xlink:href="#linear-gradient-33"/><linearGradient id="linear-gradient-50" x1="-435.76" y1="4.21" x2="-430" y2="4.21" xlink:href="#linear-gradient-33"/><linearGradient id="linear-gradient-51" x1="-444.3" y1="5.14" x2="-442.57" y2="5.14" xlink:href="#linear-gradient-33"/><linearGradient id="linear-gradient-52" x1="-449.42" y1="4.2" x2="-445.08" y2="4.2" xlink:href="#linear-gradient-33"/><linearGradient id="linear-gradient-53" x1="-423.15" y1="0.28" x2="-419.92" y2="0.28" xlink:href="#linear-gradient-33"/><linearGradient id="linear-gradient-54" x1="-424.81" y1="2.83" x2="-418.57" y2="2.83" xlink:href="#linear-gradient-33"/><linearGradient id="linear-gradient-55" x1="-410.94" y1="4.28" x2="-406.65" y2="4.28" xlink:href="#linear-gradient-33"/><linearGradient id="linear-gradient-56" x1="-412.88" y1="4.02" x2="-391.79" y2="4.02" xlink:href="#linear-gradient-33"/><linearGradient id="linear-gradient-57" x1="-392.78" y1="5.32" x2="-389.55" y2="5.32" xlink:href="#linear-gradient-33"/><linearGradient id="linear-gradient-58" x1="-388.41" y1="2.64" x2="-379.36" y2="2.64" xlink:href="#linear-gradient-33"/><linearGradient id="linear-gradient-59" x1="-379.72" y1="2.48" x2="-372.11" y2="2.48" xlink:href="#linear-gradient-33"/><linearGradient id="linear-gradient-60" x1="-367.68" y1="3.26" x2="-358.66" y2="3.26" xlink:href="#linear-gradient-33"/><linearGradient id="linear-gradient-61" x1="-361.65" y1="4.01" x2="-355.4" y2="4.01" xlink:href="#linear-gradient-33"/><linearGradient id="linear-gradient-62" x1="-350.24" y1="4.59" x2="-344.97" y2="4.59" xlink:href="#linear-gradient-33"/><linearGradient id="linear-gradient-63" x1="-338.44" y1="3.04" x2="-337.21" y2="3.04" xlink:href="#linear-gradient-33"/><linearGradient id="linear-gradient-64" x1="-325.53" y1="2.91" x2="-322.18" y2="2.91" xlink:href="#linear-gradient-33"/><radialGradient id="radial-gradient-2" cx="-61.47" cy="184.4" r="134.59" gradientTransform="translate(189.1 -168.72) scale(1.11 0.96)" gradientUnits="userSpaceOnUse"><stop offset="0.45" stop-color="#fff"/><stop offset="1" stop-color="#1c556a"/></radialGradient></defs><title>Asset 8</title><g class="cls-1"><g id="Layer_2" data-name="Layer 2"><g id="Layer_1-2" data-name="Layer 1"><path class="cls-2" d="M230.2,112.76V3.66c-11.52,2-24.71-2.33-36.41-.66-18.93,2.68-33.18.53-49.16-.62-18-1.29-36.14,3.32-53.95,1C85.34,2.73,80,1.94,74.6,1.59a80.35,80.35,0,0,0-16,.81C49.75,3.6,45.26,5,30.25,3.21,20.39,2,10.56,3.89.63,4.77v108Z"/><g class="cls-3"><path class="cls-4" d="M104.1,3.56c-3.07-.1-6.14.12-9.22,0a49.18,49.18,0,0,1-9.45-1.39,23.87,23.87,0,0,0-8-.48c-3.07.37-5.92,1.36-9,1.77-.18,0-.14.22,0,.22,2.78-.08,5.34-.84,8.06-1.19a27.61,27.61,0,0,1,9.48.91c5.79,1.26,12.08.69,18,.45C104.43,3.89,104.43,3.57,104.1,3.56Z"/><path class="cls-5" d="M119.69,4.38a37.46,37.46,0,0,1-5.51.27c-1.1,0-2.23-.22-3.33-.33-.93-.09-1.75,0-2.71-.14,0,0,0,0,0,0a11.22,11.22,0,0,0,2.18.3c1.14.07,2.23.33,3.37.39a22.7,22.7,0,0,0,6.06-.43C119.81,4.45,119.77,4.37,119.69,4.38Z"/><path class="cls-6" d="M143.37,2.53c-2.58,0-5.15.18-7.72.22-.11,0-.11.13,0,.13,2.58,0,5.14-.2,7.72-.24C143.46,2.63,143.46,2.53,143.37,2.53Z"/><path class="cls-7" d="M101.3,3.16c-4.54-.5-9.23-.23-13.63-1.3,0,0-.09,0,0,.07C92,3.24,96.65,3,101.25,3.4,101.45,3.41,101.49,3.18,101.3,3.16Z"/><path class="cls-8" d="M124.24,4.39c-3.92.33-7.41,1.28-11.43.93-2.09-.18-4-.65-6-.94a31.39,31.39,0,0,0-5.22,0c-.2,0-.2.21,0,.21a26.49,26.49,0,0,1,6.18.34,33.52,33.52,0,0,0,5,.81A39.48,39.48,0,0,0,124.3,4.68C124.53,4.63,124.49,4.36,124.24,4.39Z"/><path class="cls-9" d="M59.29,4.27a25.57,25.57,0,0,1-5.19.46c-.91,0-1.82-.08-2.72-.17A9,9,0,0,1,49,4.34c-.15-.06-.27.09-.14.16a3.24,3.24,0,0,0,1.58.31c1,0,2.09.17,3.12.22a18,18,0,0,0,5.8-.69C59.39,4.32,59.35,4.26,59.29,4.27Z"/><path class="cls-10" d="M72.73,2c-3.76.15-7.3,1.21-11,1.71-.26,0-.15.31.11.27,3.67-.47,7.2-1.33,10.9-1.73C73,2.22,72.93,2,72.73,2Z"/><path class="cls-11" d="M133.13,2.84c-1.33.12-2.67.22-4,.39a27.36,27.36,0,0,1-4.06.56c-.11,0-.1.11,0,.12a11.51,11.51,0,0,0,3.16-.4c1.59-.32,3.32-.2,4.94-.49C133.31,3,133.29,2.82,133.13,2.84Z"/><path class="cls-12" d="M157.84,3.51l-5.32-.76c-1.91-.26-3.87-.11-5.78-.33-.1,0-.14.08,0,.1,1.87.34,3.76.41,5.66.62s3.61.46,5.44.6C158,3.75,158,3.53,157.84,3.51Z"/><path class="cls-13" d="M180.61,4.47c-2.82-.06-5.65.09-8.48.06-2.64,0-5.12-.73-7.79-.61-.08,0-.08.09,0,.09,2.64,0,5.14.62,7.79.6,2.83,0,5.65.07,8.48,0C180.75,4.6,180.75,4.47,180.61,4.47Z"/><path class="cls-14" d="M189.49,3.81c-1.68.19-3.37.34-5,.56-.1,0-.06.12.05.11,1.66-.23,3.36-.34,5-.59C189.59,3.87,189.56,3.8,189.49,3.81Z"/><path class="cls-15" d="M194.35,3.12c-.55.11-1.12.21-1.68.33-.09,0,0,.13,0,.11.56-.13,1.13-.22,1.68-.36C194.47,3.18,194.44,3.1,194.35,3.12Z"/><path class="cls-16" d="M209.54,3.12a31.38,31.38,0,0,0-9.63-.25c-.12,0-.12.13,0,.12a52.84,52.84,0,0,1,9.5.44C209.71,3.46,209.82,3.19,209.54,3.12Z"/><path class="cls-17" d="M42.23,3.63a24.69,24.69,0,0,0-7.34-.23c-2.66.17-5.36.27-8,.63-.09,0-.06.1,0,.1,2.48-.12,4.94-.3,7.42-.38a45.25,45.25,0,0,1,7.81.09C42.35,3.87,42.43,3.68,42.23,3.63Z"/><path class="cls-18" d="M48,4.06a4.37,4.37,0,0,0-2.46.07c-.11,0,0,.17.09.14a6.61,6.61,0,0,1,2.26.06C48.1,4.36,48.21,4.11,48,4.06Z"/><path class="cls-19" d="M65.33,3.93C62.45,4.35,60,5.29,57,5.37c-.17,0-.17.16,0,.17,2.91.15,5.62-1.12,8.4-1.55C65.41,4,65.39,3.93,65.33,3.93Z"/><path class="cls-20" d="M81.5,3.15a33,33,0,0,0-6.59,0c-1.08.11-2.15.26-3.21.47a17.32,17.32,0,0,1-3.84.64h0a26.9,26.9,0,0,0,5.47-.64,40,40,0,0,1,8.12-.27C81.66,3.41,81.71,3.17,81.5,3.15Z"/><path class="cls-21" d="M70.71,4.71c-1.44.13-2.86,0-4.31.07-1.2,0-2.11.46-3.27.59-.14,0-.1.17,0,.17,1.12,0,2.13-.34,3.24-.39,1.46-.07,2.91-.12,4.34-.33C70.83,4.81,70.81,4.7,70.71,4.71Z"/><path class="cls-22" d="M53.82,6.08A4.65,4.65,0,0,0,51.59,6c-.06,0-.06.06,0,.06a15.33,15.33,0,0,1,2.15.15C53.86,6.24,53.92,6.12,53.82,6.08Z"/><path class="cls-23" d="M50.41,5.17c-1.15,0-2.31,0-3.46-.14a4.69,4.69,0,0,0-2.27,0s0,.08,0,.06a9.83,9.83,0,0,1,2.64.14c1,.06,2,0,3,0C50.52,5.28,50.52,5.17,50.41,5.17Z"/><path class="cls-24" d="M84.2,1.17A20.63,20.63,0,0,0,80.11.92c-.1,0-.12.1,0,.12,1.32.21,2.65.27,4,.44C84.37,1.51,84.49,1.23,84.2,1.17Z"/><path class="cls-25" d="M86,3.71c-1.23-.14-2.45-.22-3.69-.27a34.09,34.09,0,0,0-4.42.42c-.18,0-.19.2,0,.2,1.29,0,2.51-.26,3.81-.24S84.57,4,86,4C86.21,4,86.27,3.74,86,3.71Z"/><path class="cls-26" d="M102.09,5c-1.83,0-3.7.35-5.51,0-.12,0-.17.1,0,.13a22,22,0,0,0,5.56,0C102.27,5.2,102.27,5,102.09,5Z"/><path class="cls-27" d="M122,4.89a55.52,55.52,0,0,1-7.08.5c-2.49,0-4.7-.84-7.11-1.15-4.73-.59-9.16,1.09-13.88,1-.13,0-.14.13,0,.14,4.64.48,9.15-.8,13.81-.28,2.41.27,4.69.64,7.15.69a35.82,35.82,0,0,0,7.19-.63C122.31,5.09,122.25,4.87,122,4.89Z"/><path class="cls-28" d="M125,5.69a8.94,8.94,0,0,1-3.9.81c-.19,0-.27.16-.08.2a6.68,6.68,0,0,0,4.16-.8C125.35,5.81,125.19,5.62,125,5.69Z"/><path class="cls-29" d="M138.83,3a53.38,53.38,0,0,0-6.2.24c-1.95.14-3.73.75-5.71.79-.19,0-.18.19,0,.2a21.81,21.81,0,0,0,5.24-.67,57,57,0,0,1,6.67-.38C139,3.13,139,3,138.83,3Z"/><path class="cls-30" d="M148.65,3.53c-3.08-.93-6.78-.29-10,0-.24,0-.25.26,0,.26,3.41,0,6.45-.54,9.86,0C148.69,3.74,148.81,3.58,148.65,3.53Z"/><path class="cls-31" d="M166.69,4.33c-4-.14-8,0-11.89-.54-.12,0-.16.1-.05.12a69.87,69.87,0,0,0,11.94.61C166.87,4.51,166.87,4.33,166.69,4.33Z"/><path class="cls-32" d="M171.1,5a25.58,25.58,0,0,0-3.83-.29,25.81,25.81,0,0,1-4.22-.07c-.25,0-.35.2-.1.26a14.25,14.25,0,0,0,3.07.15c1.68,0,3.36,0,5,.18C171.25,5.25,171.29,5,171.1,5Z"/><path class="cls-33" d="M185.12,5.27a26.92,26.92,0,0,1-6.83,0c-.13,0-.19.12,0,.14a17.57,17.57,0,0,0,6.93,0C185.31,5.38,185.25,5.25,185.12,5.27Z"/><path class="cls-34" d="M195.5,3.74c-.42.12-.9.13-1.34.23-.19,0-.12.25.09.21a8.84,8.84,0,0,0,1.38-.24C195.78,3.89,195.67,3.7,195.5,3.74Z"/><path class="cls-35" d="M215.75,3.78a13.7,13.7,0,0,0-4.1-.21c-.3,0-.3.3,0,.33,1.34.11,2.69.13,4,.25C216,4.18,216,3.85,215.75,3.78Z"/></g><g class="cls-3"><path class="cls-36" d="M104.55,2.64c-3.08-.09-6.15.12-9.23,0A49.19,49.19,0,0,1,85.88,1.3a24.18,24.18,0,0,0-8-.48c-3.06.37-5.91,1.36-9,1.77-.18,0-.14.23,0,.22,2.78-.08,5.34-.84,8-1.19a27.67,27.67,0,0,1,9.49.91c5.79,1.26,12.08.69,18,.46C104.88,3,104.88,2.65,104.55,2.64Z"/><path class="cls-37" d="M120.14,3.46a34.9,34.9,0,0,1-5.51.27c-1.1,0-2.24-.21-3.33-.32-.94-.1-1.75,0-2.71-.15,0,0,0,0,0,0a11.12,11.12,0,0,0,2.17.3c1.14.07,2.24.33,3.37.39a22.67,22.67,0,0,0,6.06-.43C120.26,3.53,120.22,3.45,120.14,3.46Z"/><path class="cls-38" d="M143.81,1.62c-2.57,0-5.14.18-7.71.22-.12,0-.12.12,0,.12,2.57,0,5.14-.2,7.71-.24C143.91,1.72,143.91,1.62,143.81,1.62Z"/><path class="cls-39" d="M101.75,2.24C97.21,1.74,92.52,2,88.12.94c-.06,0-.1.05,0,.07,4.33,1.31,9,1.11,13.62,1.47C101.9,2.49,101.94,2.26,101.75,2.24Z"/><path class="cls-40" d="M124.68,3.47c-3.92.33-7.4,1.29-11.42.93-2.09-.18-4-.65-6-.94a32.52,32.52,0,0,0-5.22.06c-.19,0-.19.2,0,.2a27.1,27.1,0,0,1,6.19.34,33.52,33.52,0,0,0,5,.81,39.07,39.07,0,0,0,11.48-1.11C125,3.72,124.94,3.45,124.68,3.47Z"/><path class="cls-41" d="M59.74,3.35a25.57,25.57,0,0,1-5.19.46c-.91,0-1.82-.08-2.72-.16a9.92,9.92,0,0,1-2.41-.22c-.15-.07-.27.09-.14.15a3,3,0,0,0,1.58.31c1,0,2.08.18,3.12.22a18,18,0,0,0,5.8-.69C59.84,3.41,59.8,3.34,59.74,3.35Z"/><path class="cls-42" d="M73.18,1.08c-3.76.16-7.3,1.21-11,1.71-.26,0-.15.31.1.28,3.68-.48,7.2-1.34,10.9-1.74C73.43,1.31,73.38,1.08,73.18,1.08Z"/><path class="cls-43" d="M133.58,1.92c-1.34.12-2.67.22-4,.39a28.94,28.94,0,0,1-4.06.56c-.11,0-.1.11,0,.12a11.39,11.39,0,0,0,3.15-.4c1.6-.32,3.33-.2,4.94-.49C133.76,2.08,133.73,1.91,133.58,1.92Z"/><path class="cls-44" d="M158.29,2.59c-1.77-.26-3.55-.5-5.32-.75s-3.87-.12-5.78-.34c-.1,0-.14.09,0,.11,1.86.33,3.76.4,5.66.62s3.61.45,5.43.59C158.44,2.83,158.48,2.62,158.29,2.59Z"/><path class="cls-45" d="M181.06,3.55c-2.82-.06-5.65.08-8.48.06-2.64,0-5.13-.73-7.8-.61-.08,0-.08.09,0,.09,2.65,0,5.14.62,7.8.6,2.83,0,5.65.07,8.48,0C181.19,3.69,181.19,3.55,181.06,3.55Z"/><path class="cls-46" d="M189.94,2.89c-1.68.19-3.37.35-5,.56-.1,0-.06.12,0,.11,1.67-.23,3.37-.34,5-.59C190,3,190,2.89,189.94,2.89Z"/><path class="cls-47" d="M194.8,2.2l-1.68.33c-.1,0-.05.13,0,.11.56-.13,1.13-.22,1.68-.36C194.92,2.27,194.88,2.18,194.8,2.2Z"/><path class="cls-48" d="M210,2.21A31,31,0,0,0,200.35,2c-.11,0-.12.13,0,.13a52.91,52.91,0,0,1,9.51.43C210.15,2.55,210.27,2.27,210,2.21Z"/><path class="cls-49" d="M42.68,2.71a25,25,0,0,0-7.34-.23c-2.67.17-5.36.27-8,.63-.09,0-.07.11,0,.1,2.48-.12,4.94-.3,7.42-.37a44.27,44.27,0,0,1,7.81.08C42.8,3,42.87,2.76,42.68,2.71Z"/><path class="cls-50" d="M48.4,3.14a4.37,4.37,0,0,0-2.46.07c-.12,0,0,.17.08.14a6.93,6.93,0,0,1,2.27.06C48.55,3.44,48.66,3.2,48.4,3.14Z"/><path class="cls-51" d="M65.78,3c-2.88.41-5.37,1.35-8.38,1.43-.16,0-.16.17,0,.17,2.91.15,5.62-1.12,8.4-1.55C65.86,3.07,65.83,3,65.78,3Z"/><path class="cls-52" d="M82,2.24a32.25,32.25,0,0,0-6.59,0c-1.08.11-2.16.26-3.21.47a18,18,0,0,1-3.84.65h0a26.89,26.89,0,0,0,5.46-.64,40.13,40.13,0,0,1,8.13-.27C82.11,2.49,82.16,2.25,82,2.24Z"/><path class="cls-53" d="M71.16,3.79c-1.44.13-2.86,0-4.31.07-1.2,0-2.11.46-3.27.59-.14,0-.11.17,0,.17,1.12,0,2.13-.34,3.24-.39,1.46-.07,2.9-.12,4.34-.33C71.28,3.89,71.26,3.78,71.16,3.79Z"/><path class="cls-54" d="M54.27,5.16A4.65,4.65,0,0,0,52,5.08c-.07,0-.07.06,0,.06a15.44,15.44,0,0,1,2.15.16C54.3,5.32,54.37,5.2,54.27,5.16Z"/><path class="cls-55" d="M50.86,4.25c-1.16,0-2.31,0-3.46-.13a4.57,4.57,0,0,0-2.27,0s0,.07,0,0a9.83,9.83,0,0,1,2.64.14c1,.06,2,0,3,0C51,4.36,51,4.25,50.86,4.25Z"/><path class="cls-56" d="M84.65.25A21.41,21.41,0,0,0,80.56,0c-.1,0-.13.11,0,.12,1.33.21,2.66.28,4,.44C84.81.59,84.94.31,84.65.25Z"/><path class="cls-57" d="M86.49,2.79c-1.23-.14-2.45-.22-3.69-.27a34.09,34.09,0,0,0-4.42.42c-.19,0-.2.21,0,.2,1.29,0,2.51-.26,3.81-.24S85,3,86.43,3.07C86.66,3.08,86.72,2.82,86.49,2.79Z"/><path class="cls-58" d="M102.54,4.09c-1.83,0-3.7.35-5.51,0-.13,0-.18.1-.06.13a22.08,22.08,0,0,0,5.57,0C102.72,4.28,102.72,4.1,102.54,4.09Z"/><path class="cls-59" d="M122.47,4a57.7,57.7,0,0,1-7.09.49c-2.48,0-4.69-.84-7.1-1.14-4.74-.6-9.16,1.08-13.88,1-.13,0-.14.13,0,.14,4.65.48,9.16-.8,13.82-.28,2.41.28,4.69.64,7.14.69a35.85,35.85,0,0,0,7.2-.63C122.76,4.17,122.7,4,122.47,4Z"/><path class="cls-60" d="M125.43,4.78a9,9,0,0,1-3.89.8c-.19,0-.28.16-.08.21A6.75,6.75,0,0,0,125.62,5C125.79,4.9,125.64,4.7,125.43,4.78Z"/><path class="cls-61" d="M139.28,2a53.55,53.55,0,0,0-6.21.24c-1.94.14-3.73.75-5.7.79-.19,0-.18.19,0,.2a22.33,22.33,0,0,0,5.24-.67,54.89,54.89,0,0,1,6.67-.37C139.45,2.21,139.45,2,139.28,2Z"/><path class="cls-62" d="M149.09,2.61c-3.07-.93-6.77-.29-10,0-.23,0-.25.27,0,.26,3.41,0,6.46-.54,9.86,0C149.14,2.83,149.26,2.66,149.09,2.61Z"/><path class="cls-63" d="M167.13,3.41c-4-.14-7.95,0-11.88-.54-.12,0-.17.1-.05.12a69.8,69.8,0,0,0,11.93.61C167.32,3.59,167.32,3.41,167.13,3.41Z"/><path class="cls-64" d="M171.54,4.08a24.11,24.11,0,0,0-3.82-.28,27,27,0,0,1-4.22-.08c-.25-.05-.35.21-.11.26a14.25,14.25,0,0,0,3.07.15c1.69,0,3.36,0,5,.18C171.7,4.33,171.73,4.11,171.54,4.08Z"/><path class="cls-65" d="M185.56,4.35a26.84,26.84,0,0,1-6.82,0c-.14,0-.2.12-.06.15a18,18,0,0,0,6.94,0C185.76,4.46,185.7,4.33,185.56,4.35Z"/><path class="cls-66" d="M196,2.83c-.43.11-.9.12-1.34.23-.2,0-.12.24.08.21A10.19,10.19,0,0,0,196.07,3C196.23,3,196.12,2.78,196,2.83Z"/><path class="cls-67" d="M216.2,2.87a13.38,13.38,0,0,0-4.1-.22c-.31,0-.31.31,0,.33,1.34.11,2.69.13,4,.25C216.45,3.26,216.47,2.93,216.2,2.87Z"/></g><path class="cls-68" d="M229.57,111V3c-11.52,2-24.71-2.33-36.42-.67C174.23,5.05,160,2.9,144,1.75c-18-1.29-36.14,3.32-53.95,1C84.7,2.1,79.4,1.31,74,1a80.35,80.35,0,0,0-16,.81C49.11,3,44.63,4.36,29.62,2.58,19.76,1.41,9.92,3.26,0,4.13V111Z"/></g></g></g></svg>