<svg xmlns="http://www.w3.org/2000/svg" xmlns:xlink="http://www.w3.org/1999/xlink" viewBox="0 0 212.26 32.82"><defs><style>.cls-1{fill:none;}.cls-2{isolation:isolate;}.cls-3{clip-path:url(#clip-path);}.cls-4{fill:url(#radial-gradient);}.cls-5{fill:#bc8c75;}.cls-31,.cls-38,.cls-39,.cls-6,.cls-63,.cls-7{opacity:0.4;}.cls-6{fill:url(#linear-gradient);}.cls-10,.cls-11,.cls-13,.cls-14,.cls-16,.cls-17,.cls-18,.cls-19,.cls-20,.cls-21,.cls-22,.cls-23,.cls-25,.cls-26,.cls-27,.cls-28,.cls-30,.cls-31,.cls-32,.cls-39,.cls-40,.cls-41,.cls-42,.cls-43,.cls-45,.cls-46,.cls-48,.cls-49,.cls-50,.cls-51,.cls-52,.cls-53,.cls-54,.cls-55,.cls-57,.cls-58,.cls-59,.cls-60,.cls-62,.cls-63,.cls-64,.cls-7,.cls-8,.cls-9{mix-blend-mode:multiply;}.cls-7{fill:url(#linear-gradient-2);}.cls-10,.cls-14,.cls-17,.cls-18,.cls-22,.cls-24,.cls-25,.cls-26,.cls-32,.cls-33,.cls-34,.cls-35,.cls-40,.cls-42,.cls-46,.cls-49,.cls-50,.cls-54,.cls-56,.cls-57,.cls-58,.cls-64,.cls-65,.cls-66,.cls-8{opacity:0.5;}.cls-8{fill:url(#linear-gradient-3);}.cls-19,.cls-30,.cls-41,.cls-51,.cls-62,.cls-9{opacity:0.7;}.cls-9{fill:url(#radial-gradient-2);}.cls-10{fill:url(#radial-gradient-3);}.cls-11,.cls-16,.cls-23,.cls-27,.cls-29,.cls-43,.cls-48,.cls-55,.cls-59,.cls-61{opacity:0.2;}.cls-11{fill:url(#linear-gradient-4);}.cls-12,.cls-15,.cls-21,.cls-44,.cls-47,.cls-53{opacity:0.1;}.cls-12,.cls-15,.cls-24,.cls-29,.cls-33,.cls-34,.cls-35,.cls-44,.cls-47,.cls-56,.cls-61,.cls-65,.cls-66{mix-blend-mode:screen;}.cls-12{fill:url(#linear-gradient-5);}.cls-13,.cls-28,.cls-45,.cls-60{opacity:0.3;}.cls-13{fill:url(#linear-gradient-6);}.cls-14{fill:url(#radial-gradient-4);}.cls-15{fill:url(#linear-gradient-7);}.cls-16{fill:url(#linear-gradient-8);}.cls-17{fill:url(#linear-gradient-9);}.cls-18{fill:url(#linear-gradient-10);}.cls-19{fill:url(#linear-gradient-11);}.cls-20,.cls-52{opacity:0.6;}.cls-20{fill:url(#radial-gradient-5);}.cls-21{fill:url(#linear-gradient-12);}.cls-22{fill:url(#linear-gradient-13);}.cls-23{fill:url(#linear-gradient-14);}.cls-24{fill:url(#linear-gradient-15);}.cls-25{fill:url(#radial-gradient-6);}.cls-26{fill:url(#linear-gradient-16);}.cls-27{fill:url(#linear-gradient-17);}.cls-28{fill:url(#linear-gradient-18);}.cls-29{fill:url(#linear-gradient-19);}.cls-30{fill:url(#radial-gradient-7);}.cls-31{fill:url(#radial-gradient-8);}.cls-32{fill:url(#radial-gradient-9);}.cls-33{fill:url(#linear-gradient-20);}.cls-34{fill:url(#linear-gradient-21);}.cls-35{fill:#fff;}.cls-36{fill:url(#radial-gradient-10);}.cls-37{fill:url(#radial-gradient-11);}.cls-38{fill:url(#linear-gradient-22);}.cls-39{fill:url(#linear-gradient-23);}.cls-40{fill:url(#linear-gradient-24);}.cls-41{fill:url(#radial-gradient-12);}.cls-42{fill:url(#radial-gradient-13);}.cls-43{fill:url(#linear-gradient-25);}.cls-44{fill:url(#linear-gradient-26);}.cls-45{fill:url(#linear-gradient-27);}.cls-46{fill:url(#radial-gradient-14);}.cls-47{fill:url(#linear-gradient-28);}.cls-48{fill:url(#linear-gradient-29);}.cls-49{fill:url(#linear-gradient-30);}.cls-50{fill:url(#linear-gradient-31);}.cls-51{fill:url(#linear-gradient-32);}.cls-52{fill:url(#radial-gradient-15);}.cls-53{fill:url(#linear-gradient-33);}.cls-54{fill:url(#linear-gradient-34);}.cls-55{fill:url(#linear-gradient-35);}.cls-56{fill:url(#linear-gradient-36);}.cls-57{fill:url(#radial-gradient-16);}.cls-58{fill:url(#linear-gradient-37);}.cls-59{fill:url(#linear-gradient-38);}.cls-60{fill:url(#linear-gradient-39);}.cls-61{fill:url(#linear-gradient-40);}.cls-62{fill:url(#radial-gradient-17);}.cls-63{fill:url(#radial-gradient-18);}.cls-64{fill:url(#radial-gradient-19);}.cls-65{fill:url(#linear-gradient-41);}.cls-66{fill:url(#linear-gradient-42);}.cls-67{fill:url(#radial-gradient-20);}</style><clipPath id="clip-path" transform="translate(7.43 -59.35)"><rect class="cls-1" width="200" height="101"/></clipPath><radialGradient id="radial-gradient" cx="140.1" cy="267.79" r="2.77" gradientTransform="matrix(1.32, -0.03, 0.03, 0.96, -8.45, -190.15)" gradientUnits="userSpaceOnUse"><stop offset="0" stop-color="#7d564c"/><stop offset="0.99" stop-color="#58403a"/></radialGradient><linearGradient id="linear-gradient" x1="187.05" y1="104.94" x2="191.71" y2="105.04" gradientTransform="matrix(1.26, -0.03, 0.03, 1, -58, -25.91)" xlink:href="#radial-gradient"/><linearGradient id="linear-gradient-2" x1="187.04" y1="105.16" x2="191.71" y2="105.26" gradientTransform="matrix(1.26, -0.03, 0.03, 1, -58, -25.91)" xlink:href="#radial-gradient"/><linearGradient id="linear-gradient-3" x1="187.14" y1="100.61" x2="191.81" y2="100.72" gradientTransform="matrix(1.26, -0.03, 0.03, 1, -58, -25.91)" gradientUnits="userSpaceOnUse"><stop offset="0" stop-color="#58403a"/><stop offset="0.53" stop-color="#7d564c"/><stop offset="1" stop-color="#a78f89"/></linearGradient><radialGradient id="radial-gradient-2" cx="142.18" cy="272.86" r="33.7" gradientTransform="matrix(1.32, -0.03, 0.03, 0.96, -8.45, -190.15)" gradientUnits="userSpaceOnUse"><stop offset="0.23" stop-color="#a78f89"/><stop offset="0.58" stop-color="#7d564c"/><stop offset="1" stop-color="#58403a"/></radialGradient><radialGradient id="radial-gradient-3" cx="70.31" cy="279.21" r="11.12" gradientTransform="matrix(1.32, -0.03, 0.03, 0.96, -8.45, -190.15)" gradientUnits="userSpaceOnUse"><stop offset="0.46" stop-color="#a78f89"/><stop offset="0.91" stop-color="#7d564c"/><stop offset="1" stop-color="#58403a"/></radialGradient><linearGradient id="linear-gradient-4" x1="119.4" y1="110.96" x2="131.65" y2="110.96" gradientTransform="matrix(1.26, -0.03, 0.03, 1, -58, -25.91)" gradientUnits="userSpaceOnUse"><stop offset="0" stop-color="#c3ab85"/><stop offset="0.33" stop-color="#824f00"/><stop offset="1" stop-color="#473210"/></linearGradient><linearGradient id="linear-gradient-5" x1="120.68" y1="105.73" x2="140.02" y2="105.73" gradientTransform="matrix(1.26, -0.03, 0.03, 1, -58, -25.91)" gradientUnits="userSpaceOnUse"><stop offset="0" stop-color="#fe946b"/><stop offset="1" stop-color="#fff0b5"/></linearGradient><linearGradient id="linear-gradient-6" x1="120.68" y1="97.48" x2="140.02" y2="97.48" gradientTransform="matrix(1.26, -0.03, 0.03, 1, -58, -25.91)" gradientUnits="userSpaceOnUse"><stop offset="0" stop-color="#a78f89"/><stop offset="0.47" stop-color="#7d564c"/><stop offset="1" stop-color="#58403a"/></linearGradient><radialGradient id="radial-gradient-4" cx="87.28" cy="286.03" r="6.6" gradientTransform="matrix(1.32, -0.03, 0.03, 0.96, -8.45, -190.15)" xlink:href="#linear-gradient-6"/><linearGradient id="linear-gradient-7" x1="134.99" y1="98.16" x2="140.7" y2="98.16" xlink:href="#linear-gradient-5"/><linearGradient id="linear-gradient-8" x1="131.42" y1="105.9" x2="145.34" y2="105.9" xlink:href="#linear-gradient-4"/><linearGradient id="linear-gradient-9" x1="139.99" y1="106.31" x2="142.5" y2="106.31" xlink:href="#linear-gradient-6"/><linearGradient id="linear-gradient-10" x1="139.99" y1="100.22" x2="142.5" y2="100.22" xlink:href="#linear-gradient-6"/><linearGradient id="linear-gradient-11" x1="140.63" y1="114.12" x2="144.9" y2="114.12" gradientTransform="matrix(1.26, -0.03, 0.03, 1, -58, -25.91)" xlink:href="#radial-gradient"/><radialGradient id="radial-gradient-5" cx="85.83" cy="281.16" r="18.65" gradientTransform="matrix(1.32, -0.03, 0.03, 0.96, -8.45, -190.15)" gradientUnits="userSpaceOnUse"><stop offset="0.55" stop-color="#a78f89"/><stop offset="0.86" stop-color="#7d564c"/><stop offset="1" stop-color="#58403a"/></radialGradient><linearGradient id="linear-gradient-12" x1="152.36" y1="103.29" x2="158.11" y2="103.29" xlink:href="#linear-gradient-4"/><linearGradient id="linear-gradient-13" x1="152.36" y1="102.81" x2="158.11" y2="102.81" xlink:href="#linear-gradient-6"/><linearGradient id="linear-gradient-14" x1="146.51" y1="106.04" x2="160.96" y2="106.04" xlink:href="#linear-gradient-4"/><linearGradient id="linear-gradient-15" x1="149.36" y1="113.63" x2="156.11" y2="113.63" xlink:href="#linear-gradient-5"/><radialGradient id="radial-gradient-6" cx="117.29" cy="271.8" r="16.77" gradientTransform="matrix(1.32, -0.03, 0.03, 0.96, -8.45, -190.15)" gradientUnits="userSpaceOnUse"><stop offset="0" stop-color="#a78f89"/><stop offset="0.58" stop-color="#7d564c"/><stop offset="1" stop-color="#58403a"/></radialGradient><linearGradient id="linear-gradient-16" x1="162.11" y1="102.12" x2="172.39" y2="102.12" xlink:href="#linear-gradient-6"/><linearGradient id="linear-gradient-17" x1="165.47" y1="103.72" x2="177.28" y2="103.72" xlink:href="#linear-gradient-4"/><linearGradient id="linear-gradient-18" x1="165.47" y1="100.36" x2="177.28" y2="100.36" xlink:href="#linear-gradient-6"/><linearGradient id="linear-gradient-19" x1="157.63" y1="101.8" x2="164.55" y2="101.8" gradientTransform="matrix(1.26, -0.03, 0.03, 1, -58, -25.91)" gradientUnits="userSpaceOnUse"><stop offset="0.11" stop-color="#ffefdb"/><stop offset="0.45" stop-color="#bba289"/><stop offset="1"/></linearGradient><radialGradient id="radial-gradient-7" cx="108.41" cy="283.86" r="17.34" xlink:href="#radial-gradient-6"/><radialGradient id="radial-gradient-8" cx="121.83" cy="114.63" r="186.69" gradientTransform="matrix(1.32, -0.03, 0.03, 0.96, -8.45, -190.15)" gradientUnits="userSpaceOnUse"><stop offset="0.88" stop-color="#fff"/><stop offset="0.95" stop-color="#7d564c"/><stop offset="1" stop-color="#58403a"/></radialGradient><radialGradient id="radial-gradient-9" cx="121.83" cy="118.12" r="183.28" xlink:href="#radial-gradient-8"/><linearGradient id="linear-gradient-20" x1="162.76" y1="90.34" x2="162.76" y2="101" xlink:href="#linear-gradient-5"/><linearGradient id="linear-gradient-21" x1="162.76" y1="90.34" x2="162.76" y2="101" gradientTransform="matrix(1.26, -0.03, 0.03, 1, -58, -25.91)" gradientUnits="userSpaceOnUse"><stop offset="0" stop-color="#ea8057"/><stop offset="1" stop-color="#ffdca1"/></linearGradient><radialGradient id="radial-gradient-10" cx="153.13" cy="275.13" r="9.49" xlink:href="#radial-gradient"/><radialGradient id="radial-gradient-11" cx="4473.76" cy="377.26" r="2.77" gradientTransform="matrix(-1.29, -0.02, -0.04, 0.96, 5815.16, -220.07)" xlink:href="#radial-gradient"/><linearGradient id="linear-gradient-22" x1="4439.17" y1="212.48" x2="4443.84" y2="212.58" gradientTransform="matrix(-1.24, -0.02, -0.04, 1, 5543.52, -54.74)" xlink:href="#radial-gradient"/><linearGradient id="linear-gradient-23" x1="4439.17" y1="212.7" x2="4443.84" y2="212.8" gradientTransform="matrix(-1.24, -0.02, -0.04, 1, 5543.52, -54.74)" xlink:href="#radial-gradient"/><linearGradient id="linear-gradient-24" x1="4439.27" y1="208.16" x2="4443.93" y2="208.26" gradientTransform="matrix(-1.24, -0.02, -0.04, 1, 5543.52, -54.74)" xlink:href="#linear-gradient-3"/><radialGradient id="radial-gradient-12" cx="4475.84" cy="382.33" r="33.7" gradientTransform="matrix(-1.29, -0.02, -0.04, 0.96, 5815.16, -220.07)" xlink:href="#radial-gradient-2"/><radialGradient id="radial-gradient-13" cx="4403.97" cy="388.68" r="11.12" gradientTransform="matrix(-1.29, -0.02, -0.04, 0.96, 5815.16, -220.07)" xlink:href="#radial-gradient-3"/><linearGradient id="linear-gradient-25" x1="4371.53" y1="218.5" x2="4383.77" y2="218.5" gradientTransform="matrix(-1.24, -0.02, -0.04, 1, 5543.52, -54.74)" xlink:href="#linear-gradient-4"/><linearGradient id="linear-gradient-26" x1="4372.81" y1="213.27" x2="4392.14" y2="213.27" gradientTransform="matrix(-1.24, -0.02, -0.04, 1, 5543.52, -54.74)" xlink:href="#linear-gradient-5"/><linearGradient id="linear-gradient-27" x1="4372.81" y1="205.02" x2="4392.14" y2="205.02" gradientTransform="matrix(-1.24, -0.02, -0.04, 1, 5543.52, -54.74)" xlink:href="#linear-gradient-6"/><radialGradient id="radial-gradient-14" cx="4420.93" cy="395.5" r="6.6" gradientTransform="matrix(-1.29, -0.02, -0.04, 0.96, 5815.16, -220.07)" xlink:href="#linear-gradient-6"/><linearGradient id="linear-gradient-28" x1="4387.11" y1="205.71" x2="4392.82" y2="205.71" gradientTransform="matrix(-1.24, -0.02, -0.04, 1, 5543.52, -54.74)" xlink:href="#linear-gradient-5"/><linearGradient id="linear-gradient-29" x1="4383.54" y1="213.44" x2="4397.47" y2="213.44" gradientTransform="matrix(-1.24, -0.02, -0.04, 1, 5543.52, -54.74)" xlink:href="#linear-gradient-4"/><linearGradient id="linear-gradient-30" x1="4392.12" y1="213.85" x2="4394.62" y2="213.85" gradientTransform="matrix(-1.24, -0.02, -0.04, 1, 5543.52, -54.74)" xlink:href="#linear-gradient-6"/><linearGradient id="linear-gradient-31" x1="4392.12" y1="207.76" x2="4394.62" y2="207.76" gradientTransform="matrix(-1.24, -0.02, -0.04, 1, 5543.52, -54.74)" xlink:href="#linear-gradient-6"/><linearGradient id="linear-gradient-32" x1="4392.76" y1="221.66" x2="4397.03" y2="221.66" gradientTransform="matrix(-1.24, -0.02, -0.04, 1, 5543.52, -54.74)" xlink:href="#radial-gradient"/><radialGradient id="radial-gradient-15" cx="4419.49" cy="390.63" r="18.65" gradientTransform="matrix(-1.29, -0.02, -0.04, 0.96, 5815.16, -220.07)" xlink:href="#radial-gradient-5"/><linearGradient id="linear-gradient-33" x1="4404.48" y1="210.83" x2="4410.24" y2="210.83" gradientTransform="matrix(-1.24, -0.02, -0.04, 1, 5543.52, -54.74)" xlink:href="#linear-gradient-4"/><linearGradient id="linear-gradient-34" x1="4404.48" y1="210.35" x2="4410.23" y2="210.35" gradientTransform="matrix(-1.24, -0.02, -0.04, 1, 5543.52, -54.74)" xlink:href="#linear-gradient-6"/><linearGradient id="linear-gradient-35" x1="4398.64" y1="213.58" x2="4413.09" y2="213.58" gradientTransform="matrix(-1.24, -0.02, -0.04, 1, 5543.52, -54.74)" xlink:href="#linear-gradient-4"/><linearGradient id="linear-gradient-36" x1="4401.49" y1="221.17" x2="4408.24" y2="221.17" gradientTransform="matrix(-1.24, -0.02, -0.04, 1, 5543.52, -54.74)" xlink:href="#linear-gradient-5"/><radialGradient id="radial-gradient-16" cx="4450.95" cy="381.27" r="16.77" gradientTransform="matrix(-1.29, -0.02, -0.04, 0.96, 5815.16, -220.07)" xlink:href="#radial-gradient-6"/><linearGradient id="linear-gradient-37" x1="4414.24" y1="209.66" x2="4424.52" y2="209.66" gradientTransform="matrix(-1.24, -0.02, -0.04, 1, 5543.52, -54.74)" xlink:href="#linear-gradient-6"/><linearGradient id="linear-gradient-38" x1="4417.6" y1="211.27" x2="4429.4" y2="211.27" gradientTransform="matrix(-1.24, -0.02, -0.04, 1, 5543.52, -54.74)" xlink:href="#linear-gradient-4"/><linearGradient id="linear-gradient-39" x1="4417.6" y1="207.9" x2="4429.4" y2="207.9" gradientTransform="matrix(-1.24, -0.02, -0.04, 1, 5543.52, -54.74)" xlink:href="#linear-gradient-6"/><linearGradient id="linear-gradient-40" x1="4409.75" y1="209.34" x2="4416.67" y2="209.34" gradientTransform="matrix(-1.24, -0.02, -0.04, 1, 5543.52, -54.74)" xlink:href="#linear-gradient-19"/><radialGradient id="radial-gradient-17" cx="4442.07" cy="393.33" r="17.34" gradientTransform="matrix(-1.29, -0.02, -0.04, 0.96, 5815.16, -220.07)" xlink:href="#radial-gradient-6"/><radialGradient id="radial-gradient-18" cx="4455.49" cy="224.1" r="186.69" gradientTransform="matrix(-1.29, -0.02, -0.04, 0.96, 5815.16, -220.07)" xlink:href="#radial-gradient-8"/><radialGradient id="radial-gradient-19" cx="4455.49" cy="227.59" r="183.28" gradientTransform="matrix(-1.29, -0.02, -0.04, 0.96, 5815.16, -220.07)" xlink:href="#radial-gradient-8"/><linearGradient id="linear-gradient-41" x1="4414.89" y1="197.88" x2="4414.89" y2="208.54" gradientTransform="matrix(-1.24, -0.02, -0.04, 1, 5543.52, -54.74)" xlink:href="#linear-gradient-5"/><linearGradient id="linear-gradient-42" x1="4414.89" y1="197.88" x2="4414.89" y2="208.54" gradientTransform="matrix(-1.24, -0.02, -0.04, 1, 5543.52, -54.74)" xlink:href="#linear-gradient-21"/><radialGradient id="radial-gradient-20" cx="4486.79" cy="384.59" r="9.49" gradientTransform="matrix(-1.29, -0.02, -0.04, 0.96, 5815.16, -220.07)" xlink:href="#radial-gradient"/></defs><title>earth</title><g class="cls-2"><g id="Layer_1" data-name="Layer 1"><g class="cls-3"><path class="cls-4" d="M179,62c-.22,1.17,3.77,2.63,6.11,2a2.58,2.58,0,0,0,1.9-2.84c0-.28,0-.62.07-1-1.26-.1-2.54-.23-3.12-.35-1.34-.28-1.2.25-2.73.07s-2.29-.26-2.29-.26A6.28,6.28,0,0,1,179,62Z" transform="translate(7.43 -59.35)"/><path class="cls-5" d="M81.16,84.48a9,9,0,0,0,2.32,1.15c1,.23,7.22,1.6,8.51,2.24,0,0,3-.14,3.94-.09a26.49,26.49,0,0,1,3.54.84c.8.19,6.39.19,6.39.19l2.27.92,3.43-.57s5.68.4,5.78.35,2.94-.25,2.94-.25a16.19,16.19,0,0,0,2.31.69,13.6,13.6,0,0,0,2.8.2,12.56,12.56,0,0,1,3,.21s3.5.07,4.85.73l1.44-.88a9.45,9.45,0,0,0,1.84,0,24.15,24.15,0,0,1,3.21.29c.61,0,2.31-.25,2.31-.25a1.88,1.88,0,0,0,1.42.54c1,0,8.64.16,8.87.48s10.37-.5,10.37-.5,4.64.42,5.54.56,2,.21,2,.21l3.33.62,12-.48,8.53.29s5.87-.89,6.12-1,4.62-.11,4.62-.11L204,61.82,96.58,61.9s-2.49,1.54-2.93,2.39c-.18.35.71,1.64,1,2.26s.62,5.46.83,5.94a3.88,3.88,0,0,1-1.08,2.38c-1,1-3.61,3.76-4.54,4.69S86.14,81.79,85,82.45,81.16,84.48,81.16,84.48Z" transform="translate(7.43 -59.35)"/><path class="cls-6" d="M186.46,63.89q-2.76,1.35-5.44,2.79a52.89,52.89,0,0,0,3.9,6.82,46.07,46.07,0,0,0-.14,8.62c1.18-5.64,2.61-11.26,4.1-16.82C188.08,64.83,187.26,64.37,186.46,63.89Z" transform="translate(7.43 -59.35)"/><path class="cls-7" d="M185,79.75c.29-2.25.57-4.5.66-6.76.08-2-.13-3.94-.24-5.92a10.52,10.52,0,0,1,.14-2.75c-1.54.77-3.07,1.56-4.57,2.36a52.89,52.89,0,0,0,3.9,6.82,46.07,46.07,0,0,0-.14,8.62l.12-.54C184.91,81,185,80.36,185,79.75Z" transform="translate(7.43 -59.35)"/><path class="cls-8" d="M183.46,69.56c-.27-.76.95-1.83,1.87-2.07a2.91,2.91,0,0,1,2.73.92c.27-1,.54-2.07.82-3.11-.8-.47-1.62-.93-2.42-1.41q-2.76,1.35-5.44,2.79a53.4,53.4,0,0,0,3.87,6.78C184.55,72.15,184,70.91,183.46,69.56Z" transform="translate(7.43 -59.35)"/><path class="cls-9" d="M189.83,61.83c-1.83,6.68-3.62,13.47-5.05,20.29a46.07,46.07,0,0,1,.14-8.62,46.67,46.67,0,0,1-5.83-11.67H168a12.13,12.13,0,0,1,.48,2.11c.22,1.68.46,3.36.81,5s.67,3.08.87,4.64c.06.46.11.93.19,1.4.58.89,1.53,1.74,1.5,2.74-.06,1.6-1.11,3.07-1.25,4.67a46.24,46.24,0,0,0,.29,4.85,27.84,27.84,0,0,1-.35,4.27l3.06.57,12-.48,8.53.29s5.87-.89,6.12-1,4.62-.11,4.62-.11L204,61.82Z" transform="translate(7.43 -59.35)"/><path class="cls-10" d="M102.06,73c-2-3.6-4.17-7.28-5.14-11.07h-.34s-2.49,1.54-2.93,2.39c-.18.35.71,1.64,1,2.26s.62,5.46.83,5.94a3.88,3.88,0,0,1-1.08,2.38c-1,1-3.61,3.76-4.54,4.69S86.14,81.79,85,82.45s-3.85,2-3.85,2a9,9,0,0,0,2.32,1.15c1,.23,7.22,1.6,8.51,2.24,0,0,3-.14,3.94-.09h0c1.14-1.91,2.29-3.78,3.23-5.6C100.87,79.37,101.18,76.1,102.06,73Z" transform="translate(7.43 -59.35)"/><path class="cls-11" d="M105.24,80.65A29.46,29.46,0,0,0,102.06,73c-.88,3.14-1.19,6.41-2.87,9.22C98.25,84,97.1,85.87,96,87.78a26.87,26.87,0,0,1,3.51.84c.8.19,6.39.19,6.39.19l.55.23C106.05,86.19,105.69,83.35,105.24,80.65Z" transform="translate(7.43 -59.35)"/><path class="cls-12" d="M113.64,72.32c-1.58-3.42-3.11-6.84-3.13-10.44H96.92c1.67,6.54,7.07,12.72,8.32,18.76.45,2.7.81,5.54,1.17,8.39l1.72.69,3-.5C110.9,83.48,111,77.77,113.64,72.32Z" transform="translate(7.43 -59.35)"/><path class="cls-13" d="M108.47,64.61c1.52.31,2,2.3,2.28,3.22a29.92,29.92,0,0,0,2.54,5.26c.11-.26.23-.52.35-.77-1.58-3.42-3.11-6.84-3.13-10.44H96.92c.11.43.23.85.37,1.27,2.47,2,7.61,1,10.94,1.34A.32.32,0,0,1,108.47,64.61Z" transform="translate(7.43 -59.35)"/><path class="cls-14" d="M115.1,78.75c.38.27.74-.57,1.13-.3a55.9,55.9,0,0,0-2.59-6.13c-2.65,5.45-2.74,11.16-2.51,16.91l.43-.07s5.68.4,5.78.35h0C116.46,85.93,115.2,82.35,115.1,78.75Z" transform="translate(7.43 -59.35)"/><path class="cls-15" d="M119.31,61.88H115a38.58,38.58,0,0,0,7.53,11.91C121.93,69.88,119.66,65.91,119.31,61.88Z" transform="translate(7.43 -59.35)"/><path class="cls-16" d="M115,61.88h-4.51c0,5.73,3.89,11,5.72,16.57-.39-.27-.75.57-1.13.3.1,3.6,1.36,7.18,2.26,10.76.26-.06,2.92-.25,2.92-.25l.27.1c.59-4.32,2-8.64,2.11-12.73a11.29,11.29,0,0,0-.11-2.84A38.58,38.58,0,0,1,115,61.88Z" transform="translate(7.43 -59.35)"/><path class="cls-17" d="M126.18,61.87h-6.87c.35,4,2.62,8,3.24,11.91a11.29,11.29,0,0,1,.11,2.84c-.12,4.09-1.52,8.41-2.11,12.73a13.5,13.5,0,0,0,2,.59,1.68,1.68,0,0,1,.29,0,5.78,5.78,0,0,1,.11-1.42c2.34-8,2.91-15.79.4-23.45A9.77,9.77,0,0,0,126.18,61.87Z" transform="translate(7.43 -59.35)"/><path class="cls-18" d="M121.75,64.52a.36.36,0,0,1,.4.27c0,1.84,1,3.5,1.59,5.26a22,22,0,0,1,.87,4.6c.12,1,.24,2.06.35,3.09a33.71,33.71,0,0,0-1.57-12.64,9.77,9.77,0,0,0,2.79-3.23h-6.87a17.18,17.18,0,0,0,.58,3.06A12.28,12.28,0,0,1,121.75,64.52Z" transform="translate(7.43 -59.35)"/><path class="cls-19" d="M123,88.55a5.78,5.78,0,0,0-.11,1.42,9,9,0,0,0,2.51.18,12.78,12.78,0,0,1,2.89.19A36,36,0,0,0,125,76.85,48.26,48.26,0,0,1,123,88.55Z" transform="translate(7.43 -59.35)"/><path class="cls-20" d="M133.7,76.37c-.47-4.7-2.47-9.58-4.09-14.5h-3.43a9.77,9.77,0,0,1-2.79,3.23A33.33,33.33,0,0,1,125,76.85a36,36,0,0,1,3.28,13.49l.1,0s3.5.07,4.85.73l1.07-.65C134.11,85.67,134.1,81,133.7,76.37Z" transform="translate(7.43 -59.35)"/><path class="cls-21" d="M140.56,61.86H137A126.11,126.11,0,0,0,142.43,83C142.14,76,140.93,68.93,140.56,61.86Z" transform="translate(7.43 -59.35)"/><path class="cls-22" d="M142.39,82c-.35-6.7-1.47-13.43-1.83-20.18H137q.44,2.63,1,5.23C142.43,71.12,141.62,77.07,142.39,82Z" transform="translate(7.43 -59.35)"/><path class="cls-23" d="M142.43,83A126.11,126.11,0,0,1,137,61.87h-7.39c1.48,4.51,3.29,9,3.94,13.34,3.15,4.53,7.14,8.73,8.88,13.47C142.52,86.79,142.51,84.9,142.43,83Z" transform="translate(7.43 -59.35)"/><path class="cls-24" d="M133.55,75.21c.06.39.11.78.15,1.16.4,4.58.41,9.3.6,14.07l.37-.23a9.45,9.45,0,0,0,1.84,0,24.15,24.15,0,0,1,3.21.29c.61,0,2.31-.25,2.31-.25a1.19,1.19,0,0,0,.29.23c.05-.58.08-1.17.11-1.76C140.69,83.94,136.7,79.74,133.55,75.21Z" transform="translate(7.43 -59.35)"/><path class="cls-25" d="M149.35,61.86c1.13,5,2.23,10.11,3,15.18,1.18,4.73.74,9.5.66,14.26,2.37,0,9.64-.57,9.64-.57l.28,0a28.65,28.65,0,0,1-.05-6.48q0-.66,0-1.32c-1.34-7.29-5.37-14.34-9.29-21.1Z" transform="translate(7.43 -59.35)"/><path class="cls-26" d="M154.59,68.24c2.24,1.23,3.17,3.59,4.23,5.4,1.18,2.06,2.32,4.12,3.34,6.22-1.76-6.2-5.2-12.21-8.56-18h-4.25c.56,2.49,1.11,5,1.62,7.47a19.66,19.66,0,0,1,3.16-1.27A.35.35,0,0,1,154.59,68.24Z" transform="translate(7.43 -59.35)"/><path class="cls-27" d="M163.65,71.78c-.4-1.26-.75-2.54-1.22-3.79a35.28,35.28,0,0,1-2-6.14H153.6c3.92,6.76,8,13.81,9.29,21.1a30,30,0,0,1,.65-6.3A8.86,8.86,0,0,0,163.65,71.78Z" transform="translate(7.43 -59.35)"/><path class="cls-28" d="M160.59,66.83a.42.42,0,0,1,.61,0c1.44,2.07,1.89,4.74,2.2,7,.11.77.18,1.53.24,2.3a8.35,8.35,0,0,0,0-4.41c-.4-1.26-.75-2.54-1.22-3.79a35.28,35.28,0,0,1-2-6.14H153.6c1.64,2.83,3.29,5.7,4.76,8.62a5,5,0,0,1-.11-2.1.22.22,0,0,1,.17-.19,9.57,9.57,0,0,1,2.08-1.31A.19.19,0,0,1,160.59,66.83Z" transform="translate(7.43 -59.35)"/><path class="cls-29" d="M152.88,79.6a25.1,25.1,0,0,0-.49-2.56c-.81-5.07-1.91-10.13-3-15.18h-5.68c2.1,4.21,3.05,8.67,4,13A52.78,52.78,0,0,1,152.88,79.6Z" transform="translate(7.43 -59.35)"/><path class="cls-30" d="M152.88,79.6a52.78,52.78,0,0,0-5.25-4.69c-.91-4.38-1.86-8.84-4-13h-3.11c.51,9.58,2.55,19.1,1.76,28.58a2.22,2.22,0,0,0,1.13.31c1,0,8.64.16,8.87.48a1.73,1.73,0,0,0,.73.07C153.12,87.4,153.42,83.49,152.88,79.6Z" transform="translate(7.43 -59.35)"/><path class="cls-31" d="M202.6,81.09c-1.2,1.86-2.59,3.09-5.48,2.22-1.51-.45-3-.88-4.52-1.38s-4.15-1.72-5.77-1-2.35,1.8-3.74,2.54a10.14,10.14,0,0,1-3.86,1c-2.1.19-5.58.78-6.52-1.13a3.93,3.93,0,0,1-.25-2.57c.31-1.45,1.44-3.25,0-4.54a13.68,13.68,0,0,1-3.1-4.3,8.82,8.82,0,0,0,.47,3.39c.38.93,1.09,2,.84,3,0,0,0,0,0,0-.43,1.82-2.35,3.51-2.1,5.39.18,1.39.71,2.84-.21,4.15a.49.49,0,0,1-.61.08c-3.35-1.92-3.9-5.46-3.59-8.38.2-1.87.93-3.71.56-5.58a17.14,17.14,0,0,0-2.2-5.18,20.22,20.22,0,0,1,.33,2.55c.1,1.47.64,3.71-.52,5a.5.5,0,0,1-.61.08,7.74,7.74,0,0,1-1.59-1.53c1.14,3.37,1.52,6.94.32,10.12a.45.45,0,0,1-.48.21,10.64,10.64,0,0,1-4.61-1.71,5.63,5.63,0,0,1-1.86-3.67,58.22,58.22,0,0,0-2.4-8.19,21.45,21.45,0,0,1,.1,4.53.39.39,0,0,1-.49.29A12.49,12.49,0,0,1,147.35,75c1.58,1.71,3.6,3.28,4,5.36.34,1.62.76,4.32-1.94,5-1.75.45-5.35,1.09-6.29-.56-.66-1.15-.48-2.37-.81-3.57l0-.1a18.53,18.53,0,0,1-.26,3.71c-.06.3-.64.26-.75,0A60.46,60.46,0,0,0,136,76.47c-1.28-1.88-2.26-3.86-3.64-5.68a42.59,42.59,0,0,1-.11,9.77c-.22,1.89,0,3.81-.3,5.69,0,.38-.18,1-.95.91A2.78,2.78,0,0,1,129,85.07a18.56,18.56,0,0,0-1.2-3.77,37.22,37.22,0,0,1-2.9-8.38c-.11,1.66-.25,3.33-.34,5-.11,1.88.06,3.84-1.12,5.59a.44.44,0,0,1-.73-.13c-.39-3.26.93-6.84-.46-10-.34,2.44-.65,4.88-1.12,7.32-.13.68-.38,4.06-2,4-2.44-.06-1.89-3-1.69-4a5.82,5.82,0,0,0,.23-1.8A7,7,0,0,0,115.86,76a19.87,19.87,0,0,1-2.18-4,23.59,23.59,0,0,0-3,6.92c-.37,1.48-1.27,2.62-3.58,2.18a2,2,0,0,1-1.44-1.32A27.58,27.58,0,0,0,104.19,76c-1.06-2.1-2.85-3.87-4.43-5.74a10.84,10.84,0,0,1,.61,4.65,10,10,0,0,1-2.32,5.42.47.47,0,0,1-.71,0c-1-1.75.08-3.63-.14-5.45a16.59,16.59,0,0,0-2.12-5.58,31.8,31.8,0,0,0,.42,3.25,3.88,3.88,0,0,1-1.08,2.38c-1,1-3.61,3.76-4.53,4.69S86.14,81.79,85,82.45s-3.85,2-3.85,2a9,9,0,0,0,2.32,1.15c1,.23,7.22,1.6,8.51,2.24,0,0,3.05-.14,3.94-.09a26.49,26.49,0,0,1,3.54.84c.8.19,6.39.19,6.39.19l2.27.92,3.43-.57s5.68.4,5.78.35,2.94-.25,2.94-.25a16.19,16.19,0,0,0,2.31.69,13.6,13.6,0,0,0,2.8.2,12.56,12.56,0,0,1,3,.21s3.5.07,4.85.73l1.44-.88a9.45,9.45,0,0,0,1.84,0,24.15,24.15,0,0,1,3.21.29c.61,0,2.31-.25,2.31-.25a1.88,1.88,0,0,0,1.42.54c1,0,8.64.16,8.87.48s10.37-.5,10.37-.5,4.64.42,5.54.56,2,.21,2,.21l3.33.62,12-.48,8.54.29s5.86-.89,6.11-1,4.62-.11,4.62-.11l-.41-14.39A13.37,13.37,0,0,1,202.6,81.09Z" transform="translate(7.43 -59.35)"/><path class="cls-32" d="M204.45,83.15c-.15,1.09-.09,2.2-.26,3.29-.28,1.78-2.07,3.62-4.45,1.92-1.47-1.06-2.05-2.67-3.57-3.69a16.94,16.94,0,0,0-6.26-2.5c-3-.42-4.93,1.11-6.6,2.69-1.47,1.39-2.93,3.09-5.13,3.92-1.66.63-4.28,1-5.67-.16-1.6-1.36-1.71-3.42-1.65-5.14a28.89,28.89,0,0,1,.45-3.81A11.9,11.9,0,0,0,170,82.89c-.41,2.15.43,4.27-.38,6.39a.42.42,0,0,1-.47.21c-1.51-.34-3.58-.4-4.63-1.39-1.31-1.24-1.57-2.87-2-4.42a20.7,20.7,0,0,1-.27,2.82c-.21,1.3-.48,2.79-2.82,2.43s-4.54-1.25-5.49-3a26.27,26.27,0,0,1-1.46-4.53,8.47,8.47,0,0,1-.48,2.76,6.77,6.77,0,0,1-3.51,3.46c-1,.54-3.12,1.64-4.3.71a6.28,6.28,0,0,1-1.94-3.38,17.26,17.26,0,0,1-.09,2.59,1.81,1.81,0,0,1-.48,1.2c-.84.84-3.93-.07-4.81-.45-1.57-.68-1.87-2.17-2.09-3.37a37.35,37.35,0,0,0-1.44-6c0,1.35-.13,2.69-.29,4.05a12.84,12.84,0,0,0,0,4c.2.94.45,3.21-1.92,2.82-2-.33-2.94-2.14-3.56-3.86a5.07,5.07,0,0,1-.37,2.47.45.45,0,0,1-.48.21c-3-.31-2.9-3-2.81-5.21-.8,2.27-2.18,5-5.46,4.48-4.32-.7-6.24-3.47-7.51-6.43-.12,1.31-.73,2.33-2.78,1.78s-2.69-2.08-3.36-3.57a6.79,6.79,0,0,1-1,2.45,7.72,7.72,0,0,1-4,3c-.25.11-.6,0-.59-.23,0-2,.66-3.62,1.12-5.76-2.34,3.47-4.58,7.66-11,6.9-2-.23-4.53-.37-6-1.38a1.16,1.16,0,0,1-.62-.84l-1.36.7a9,9,0,0,0,2.32,1.15c1,.23,7.22,1.6,8.51,2.24,0,0,3.05-.14,3.94-.09a26.49,26.49,0,0,1,3.54.84c.8.19,6.39.19,6.39.19l2.27.92,3.43-.57s5.68.4,5.78.35,2.94-.25,2.94-.25a16.19,16.19,0,0,0,2.31.69,13.6,13.6,0,0,0,2.8.2,12.56,12.56,0,0,1,3,.21s3.5.07,4.85.73l1.44-.88a9.45,9.45,0,0,0,1.84,0,24.15,24.15,0,0,1,3.21.29c.61,0,2.31-.25,2.31-.25a1.88,1.88,0,0,0,1.42.54c1,0,8.64.16,8.87.48s10.37-.5,10.37-.5,4.64.42,5.54.56,2,.21,2,.21l3.33.62,12-.48,8.54.29s5.86-.89,6.11-1,4.62-.11,4.62-.11l-.24-8.68Q204.51,82.67,204.45,83.15Z" transform="translate(7.43 -59.35)"/><path class="cls-5" d="M204.14,59.35s-4.24.14-6.43.15a71.35,71.35,0,0,0-7.4.91s-5.06-.3-6.4-.58-1.2.25-2.73.07-2.29-.26-2.29-.26A15.82,15.82,0,0,1,181.47,61c.65.54,1.31,1.4,1.56,1.54a23.44,23.44,0,0,1-2.69-1c-.32-.22-2-1.54-2-1.54A6.61,6.61,0,0,1,176,60s-3.24,0-5.39.13a31.53,31.53,0,0,1-5.54-.18c-2.29-.23-9.26.21-9.26.21s-7.81.13-9.78.11-2.5-.14-3.6-.21-4.77.4-5.91.51a18.43,18.43,0,0,1-3.17.44c-.89-.11-2.42-.3-3.25-.38a10,10,0,0,1-2.3-.64,17,17,0,0,0-4.68.72,21.68,21.68,0,0,1-4.88.2c-1.15,0-6.23-.31-8.32.15a14.44,14.44,0,0,1-4.24.33c-2,.05-8.9.48-8.9.48s-.89,1.37-.5,1.69a4.15,4.15,0,0,0,2.22.22c1,0,6.67,0,7.94-.14a23.11,23.11,0,0,1,4.45.31c1.15.16.54,1,2.44.82a29.49,29.49,0,0,1,3.81-.06,9.43,9.43,0,0,1,2.74.32,24.71,24.71,0,0,1,5.4-1.93l-2.16,2.13a15.8,15.8,0,0,0,3,.26,21.07,21.07,0,0,1,3.25.34c1,.07,2.87.35,3.57.47s3.38.43,4,.41a3.68,3.68,0,0,1,1.61.65c.26.14,1.64,1.86,2.21,1.94s2.35-.15,3.17-.07,5.89.73,6.48.67a16.81,16.81,0,0,1,4.14-2.5l2.44.82,4.43-2.69a15.5,15.5,0,0,0,1.61.61c.83.26,4.46.59,5.1.85s.93,1.36,1.25,1.54.83.12,2.21-.24A44.78,44.78,0,0,1,177,68c1.21-.13,4.64.12,4.83.07s1.56-1,2.5-1.5,1.38-.77,1.9-.22,1.57,1.58,1.83,1.8,1.14.07,2.21-.24a17.66,17.66,0,0,1,3.17-.26c1.33-.12,2.92-.21,2.92-.21s4.2.14,6,.28a13.38,13.38,0,0,0,2.07.09Z" transform="translate(7.43 -59.35)"/><path class="cls-33" d="M204.14,59.35s-4.24.14-6.43.15a71.35,71.35,0,0,0-7.4.91s-5.06-.3-6.4-.58-1.2.25-2.73.07-2.29-.26-2.29-.26A15.82,15.82,0,0,1,181.47,61c.65.54,1.31,1.4,1.56,1.54a23.44,23.44,0,0,1-2.69-1c-.32-.22-2-1.54-2-1.54A6.61,6.61,0,0,1,176,60s-3.24,0-5.39.13a31.53,31.53,0,0,1-5.54-.18c-2.29-.23-9.26.21-9.26.21s-7.81.13-9.78.11-2.5-.14-3.6-.21-4.77.4-5.91.51a18.43,18.43,0,0,1-3.17.44c-.89-.11-2.42-.3-3.25-.38a10,10,0,0,1-2.3-.64,17,17,0,0,0-4.68.72,21.68,21.68,0,0,1-4.88.2c-1.15,0-6.23-.31-8.32.15a14.44,14.44,0,0,1-4.24.33c-2,.05-8.9.48-8.9.48s-.89,1.37-.5,1.69a4.15,4.15,0,0,0,2.22.22c1,0,6.67,0,7.94-.14a23.11,23.11,0,0,1,4.45.31c1.15.16.54,1,2.44.82a29.49,29.49,0,0,1,3.81-.06,9.43,9.43,0,0,1,2.74.32,24.71,24.71,0,0,1,5.4-1.93l-2.16,2.13a15.8,15.8,0,0,0,3,.26,21.07,21.07,0,0,1,3.25.34c1,.07,2.87.35,3.57.47s3.38.43,4,.41a3.68,3.68,0,0,1,1.61.65c.26.14,1.64,1.86,2.21,1.94s2.35-.15,3.17-.07,5.89.73,6.48.67a16.81,16.81,0,0,1,4.14-2.5l2.44.82,4.43-2.69a15.5,15.5,0,0,0,1.61.61c.83.26,4.46.59,5.1.85s.93,1.36,1.25,1.54.83.12,2.21-.24A44.78,44.78,0,0,1,177,68c1.21-.13,4.64.12,4.83.07s1.56-1,2.5-1.5,1.38-.77,1.9-.22,1.57,1.58,1.83,1.8,1.14.07,2.21-.24a17.66,17.66,0,0,1,3.17-.26c1.33-.12,2.92-.21,2.92-.21s4.2.14,6,.28a13.38,13.38,0,0,0,2.07.09Z" transform="translate(7.43 -59.35)"/><path class="cls-34" d="M204.14,59.35s-4.24.14-6.43.15a71.35,71.35,0,0,0-7.4.91s-5.06-.3-6.4-.58-1.2.25-2.73.07-2.29-.26-2.29-.26A15.82,15.82,0,0,1,181.47,61c.65.54,1.31,1.4,1.56,1.54a23.44,23.44,0,0,1-2.69-1c-.32-.22-2-1.54-2-1.54A6.61,6.61,0,0,1,176,60s-3.24,0-5.39.13a31.53,31.53,0,0,1-5.54-.18c-2.29-.23-9.26.21-9.26.21s-7.81.13-9.78.11-2.5-.14-3.6-.21-4.77.4-5.91.51a18.43,18.43,0,0,1-3.17.44c-.89-.11-2.42-.3-3.25-.38a10,10,0,0,1-2.3-.64,17,17,0,0,0-4.68.72,21.68,21.68,0,0,1-4.88.2c-1.15,0-6.23-.31-8.32.15a14.44,14.44,0,0,1-4.24.33c-2,.05-8.9.48-8.9.48s-.89,1.37-.5,1.69a4.15,4.15,0,0,0,2.22.22c1,0,6.67,0,7.94-.14a23.11,23.11,0,0,1,4.45.31c1.15.16.54,1,2.44.82a29.49,29.49,0,0,1,3.81-.06,9.43,9.43,0,0,1,2.74.32,24.71,24.71,0,0,1,5.4-1.93l-2.16,2.13a15.8,15.8,0,0,0,3,.26,21.07,21.07,0,0,1,3.25.34c1,.07,2.87.35,3.57.47s3.38.43,4,.41a3.68,3.68,0,0,1,1.61.65c.26.14,1.64,1.86,2.21,1.94s2.35-.15,3.17-.07,5.89.73,6.48.67a16.81,16.81,0,0,1,4.14-2.5l2.44.82,4.43-2.69a15.5,15.5,0,0,0,1.61.61c.83.26,4.46.59,5.1.85s.93,1.36,1.25,1.54.83.12,2.21-.24A44.78,44.78,0,0,1,177,68c1.21-.13,4.64.12,4.83.07s1.56-1,2.5-1.5,1.38-.77,1.9-.22,1.57,1.58,1.83,1.8,1.14.07,2.21-.24a17.66,17.66,0,0,1,3.17-.26c1.33-.12,2.92-.21,2.92-.21s4.2.14,6,.28a13.38,13.38,0,0,0,2.07.09Z" transform="translate(7.43 -59.35)"/><path class="cls-35" d="M116.32,64.64a13.91,13.91,0,0,1-3.43-.46c-1.3-.39-2.36-1.25-3.82-1.27-1.76,0-3.52.22-5.29.24a50.6,50.6,0,0,0-6.28.3c-.2,0-.44,0-.49-.18a3.49,3.49,0,0,1-.08-1.39h-.17s-.89,1.37-.5,1.69a4.15,4.15,0,0,0,2.22.22c1,0,6.67,0,7.94-.14a23.11,23.11,0,0,1,4.45.31c1.15.16.54,1,2.44.82a29.49,29.49,0,0,1,3.81-.06,9.43,9.43,0,0,1,2.74.32s.66-.32,1.59-.71A28.39,28.39,0,0,1,116.32,64.64Z" transform="translate(7.43 -59.35)"/><path class="cls-35" d="M198.41,66.67a16.73,16.73,0,0,1-6.33-2.73,4.28,4.28,0,0,0,1.55,2.13c.19.11.15.27,0,.38a.2.2,0,0,1,.11.18v.1c0,.16-.18.27-.39.29a1.62,1.62,0,0,1-.73-.1,14.52,14.52,0,0,1-3.84,0,16,16,0,0,1-3.24-1.54,10.29,10.29,0,0,1-4,1.63c-1.09.12-2.18-.1-3.28,0s-2.34.21-3.51.34a18.73,18.73,0,0,1-3.51.17,3.9,3.9,0,0,1-1.38-.27c-.55-.25-.34-.58-1.31-.68a45.26,45.26,0,0,1-7.16-1.64,21,21,0,0,1-3.62,2,3.74,3.74,0,0,1-3.42-.66,19.16,19.16,0,0,1-5.66,2.52,15.86,15.86,0,0,1-7.26-.66c-1.29-.5-2.28-1.32-3.56-1.8a19.62,19.62,0,0,0-4.44-1c-2.9-.33-5.84-.38-8.76-.56-.31,0-.48-.21-.35-.42s.26-.42.39-.62l-.16,0-1.52,1.49a15.8,15.8,0,0,0,3,.26,21.07,21.07,0,0,1,3.25.34c1,.07,2.87.35,3.57.47s3.38.43,4,.41a3.68,3.68,0,0,1,1.61.65c.26.14,1.64,1.86,2.21,1.94s2.35-.15,3.17-.07,5.89.73,6.48.67a16.81,16.81,0,0,1,4.14-2.5l2.44.82,4.43-2.69a15.5,15.5,0,0,0,1.61.61c.83.26,4.46.59,5.1.85s.93,1.36,1.25,1.54.83.12,2.21-.24A44.78,44.78,0,0,1,177,68c1.21-.13,4.64.12,4.83.07s1.56-1,2.5-1.5,1.38-.77,1.9-.22,1.57,1.58,1.83,1.8,1.14.07,2.21-.24a17.66,17.66,0,0,1,3.17-.26c1.33-.12,2.92-.21,2.92-.21s4.2.14,6,.28a13.38,13.38,0,0,0,2.07.09l0-1A34.66,34.66,0,0,1,198.41,66.67Z" transform="translate(7.43 -59.35)"/><path class="cls-36" d="M191.89,65.32c.76.43,1.5.88,2.26,1.32a15.53,15.53,0,0,1,1.32.82l.85-.06,1.86.07a10,10,0,0,1-2.57-1c-.7-.46-1.35-1-2.11-1.37a15.61,15.61,0,0,1-2.15-1.12c-.55-.44-.91-.92-1.5-1.31a4.58,4.58,0,0,1,.73,1.4A6.73,6.73,0,0,0,191.89,65.32Z" transform="translate(7.43 -59.35)"/><path class="cls-37" d="M18.4,62.1c.2,1.17-3.74,2.67-6,2-1.6-.45-1.83-1.67-1.84-2.81,0-.29,0-.63,0-1A30.44,30.44,0,0,0,13.55,60c1.32-.29,1.18.24,2.68,0s2.26-.28,2.26-.28A6.67,6.67,0,0,0,18.4,62.1Z" transform="translate(7.43 -59.35)"/><path class="cls-5" d="M114.29,83.58A9.19,9.19,0,0,1,112,84.75c-1,.24-7.13,1.68-8.4,2.33,0,0-3-.11-3.87,0a27.54,27.54,0,0,0-3.5.87c-.79.2-6.28.26-6.28.26l-2.25.94-3.36-.54s-5.59.47-5.69.42-2.89-.22-2.89-.22a16.83,16.83,0,0,1-2.29.71,13.37,13.37,0,0,1-2.75.23,12.23,12.23,0,0,0-2.94.24s-3.44.11-4.78.78l-1.4-.87a9,9,0,0,1-1.81,0,21.35,21.35,0,0,0-3.17.33c-.59,0-2.27-.24-2.27-.24a1.83,1.83,0,0,1-1.39.56c-1,0-8.51.25-8.74.57S34,90.66,34,90.66s-4.57.46-5.45.61-2,.23-2,.23l-3.27.66L11.51,91.8l-8.39.37s-5.76-.83-6-.88-4.54-.06-4.54-.06l1.17-29.07,105.67-1s2.44,1.52,2.86,2.36c.17.35-.72,1.65-1,2.28s-.69,5.46-.89,5.95a3.8,3.8,0,0,0,1,2.37c1,1,3.51,3.72,4.41,4.64s3.65,2.19,4.75,2.83S114.29,83.58,114.29,83.58Z" transform="translate(7.43 -59.35)"/><path class="cls-38" d="M11,64.05q2.7,1.33,5.32,2.74a56,56,0,0,1-3.92,6.86,46.84,46.84,0,0,1,0,8.62C11.32,76.64,10,71,8.59,65.49,9.39,65,10.2,64.55,11,64.05Z" transform="translate(7.43 -59.35)"/><path class="cls-39" d="M12.19,79.91c-.25-2.25-.5-4.5-.56-6.76-.05-2,.18-3.94.31-5.93a10.91,10.91,0,0,0-.1-2.74c1.5.75,3,1.52,4.47,2.31a56,56,0,0,1-3.92,6.86,46.84,46.84,0,0,1,0,8.62c0-.18-.07-.36-.11-.54A15.74,15.74,0,0,0,12.19,79.91Z" transform="translate(7.43 -59.35)"/><path class="cls-40" d="M13.87,69.7c.28-.77-.91-1.83-1.81-2.06a2.92,2.92,0,0,0-2.7,1c-.25-1-.51-2.07-.77-3.1.8-.47,1.61-.94,2.4-1.44q2.7,1.33,5.32,2.74a56.68,56.68,0,0,1-3.9,6.82C12.77,72.3,13.37,71.05,13.87,69.7Z" transform="translate(7.43 -59.35)"/><path class="cls-41" d="M7.71,62c1.71,6.66,3.39,13.44,4.7,20.24a46.84,46.84,0,0,0,0-8.62,48.18,48.18,0,0,0,5.87-11.72l10.92-.11a13.18,13.18,0,0,0-.5,2.11c-.23,1.69-.49,3.37-.86,5s-.69,3.09-.91,4.66c-.06.45-.12.92-.21,1.39-.58.9-1.53,1.76-1.5,2.76,0,1.6,1,3,1.17,4.66s-.31,3.21-.35,4.85a27.56,27.56,0,0,0,.29,4.26l-3,.61L11.51,91.8l-8.39.37s-5.76-.83-6-.88-4.54-.06-4.54-.06l1.17-29.07Z" transform="translate(7.43 -59.35)"/><path class="cls-42" d="M93.89,72.27c2-3.62,4.19-7.32,5.19-11.12h.33s2.44,1.52,2.86,2.36c.17.35-.72,1.65-1,2.28s-.69,5.46-.89,5.95a3.8,3.8,0,0,0,1,2.37c1,1,3.51,3.72,4.41,4.64s3.65,2.19,4.75,2.83,3.76,2,3.76,2A9.19,9.19,0,0,1,112,84.75c-1,.24-7.13,1.68-8.4,2.33,0,0-3-.11-3.87,0h0c-1.1-1.89-2.21-3.76-3.11-5.57C95,78.67,94.71,75.4,93.89,72.27Z" transform="translate(7.43 -59.35)"/><path class="cls-43" d="M90.66,80a30.57,30.57,0,0,1,3.23-7.72c.82,3.13,1.09,6.4,2.7,9.19.9,1.81,2,3.68,3.11,5.57a27.93,27.93,0,0,0-3.47.87c-.79.2-6.28.26-6.28.26l-.55.23C89.79,85.55,90.18,82.7,90.66,80Z" transform="translate(7.43 -59.35)"/><path class="cls-44" d="M82.5,71.75c1.61-3.44,3.15-6.88,3.21-10.47l13.37-.13C97.35,67.7,92,73.94,90.66,80c-.48,2.71-.87,5.56-1.26,8.4l-1.7.71-3-.47C85.06,82.88,85.05,77.17,82.5,71.75Z" transform="translate(7.43 -59.35)"/><path class="cls-45" d="M87.69,64c-1.5.33-2,2.33-2.29,3.25a31.76,31.76,0,0,1-2.56,5.29c-.11-.26-.22-.52-.34-.77,1.61-3.44,3.15-6.88,3.21-10.47l13.37-.13c-.11.43-.24.85-.38,1.27-2.45,2.08-7.5,1.11-10.77,1.45A.41.41,0,0,0,87.69,64Z" transform="translate(7.43 -59.35)"/><path class="cls-46" d="M81,78.2c-.38.27-.73-.57-1.11-.3a59.4,59.4,0,0,1,2.62-6.15c2.55,5.42,2.56,11.13,2.25,16.88l-.41-.07s-5.59.47-5.69.42h0C79.56,85.38,80.85,81.8,81,78.2Z" transform="translate(7.43 -59.35)"/><path class="cls-47" d="M77.06,61.36l4.22,0a39.72,39.72,0,0,1-7.55,12C74.38,69.39,76.66,65.4,77.06,61.36Z" transform="translate(7.43 -59.35)"/><path class="cls-48" d="M81.28,61.32l4.43,0c-.09,5.73-4,11.06-5.83,16.62.38-.27.73.57,1.11.3-.14,3.6-1.43,7.18-2.37,10.77-.25,0-2.86-.21-2.86-.21l-.27.1c-.52-4.32-1.84-8.62-1.91-12.71a11,11,0,0,1,.15-2.85A39.72,39.72,0,0,0,81.28,61.32Z" transform="translate(7.43 -59.35)"/><path class="cls-49" d="M70.3,61.43l6.76-.07c-.4,4-2.68,8-3.33,11.94a11,11,0,0,0-.15,2.85c.07,4.09,1.39,8.39,1.91,12.71a13.41,13.41,0,0,1-2,.61l-.28,0a6.31,6.31,0,0,0-.09-1.42c-2.19-8-2.66-15.76-.09-23.45A9.29,9.29,0,0,1,70.3,61.43Z" transform="translate(7.43 -59.35)"/><path class="cls-50" d="M74.63,64a.37.37,0,0,0-.4.27c-.07,1.84-1,3.51-1.63,5.28a23,23,0,0,0-.92,4.6c-.12,1-.25,2.07-.37,3.1A34.21,34.21,0,0,1,73,64.62a9.29,9.29,0,0,1-2.71-3.19l6.76-.07a17.38,17.38,0,0,1-.61,3.07A11.75,11.75,0,0,0,74.63,64Z" transform="translate(7.43 -59.35)"/><path class="cls-51" d="M73.1,88.07a6.31,6.31,0,0,1,.09,1.42,8.69,8.69,0,0,1-2.47.21,11.76,11.76,0,0,0-2.85.22,37.22,37.22,0,0,1,3.4-13.53A48.57,48.57,0,0,0,73.1,88.07Z" transform="translate(7.43 -59.35)"/><path class="cls-52" d="M62.73,76c.52-4.7,2.55-9.61,4.2-14.54l3.37,0A9.29,9.29,0,0,0,73,64.62a34.15,34.15,0,0,0-1.74,11.77,37.22,37.22,0,0,0-3.4,13.53l-.09,0s-3.44.11-4.78.78l-1-.65C62.2,85.31,62.27,80.58,62.73,76Z" transform="translate(7.43 -59.35)"/><path class="cls-53" d="M56.16,61.56l3.5,0a128.64,128.64,0,0,1-5.61,21.19C54.42,75.7,55.7,68.64,56.16,61.56Z" transform="translate(7.43 -59.35)"/><path class="cls-54" d="M54.11,81.76c.43-6.71,1.61-13.44,2-20.2l3.5,0c-.31,1.76-.65,3.5-1,5.24C54.2,70.84,54.92,76.78,54.11,81.76Z" transform="translate(7.43 -59.35)"/><path class="cls-55" d="M54.05,82.72a128.64,128.64,0,0,0,5.61-21.19l7.27-.07c-1.52,4.53-3.34,9-4,13.38C59.73,79.4,55.75,83.64,54,88.4,53.92,86.51,54,84.62,54.05,82.72Z" transform="translate(7.43 -59.35)"/><path class="cls-56" d="M62.89,74.84c-.06.39-.12.78-.16,1.16-.46,4.58-.53,9.31-.78,14.07l-.35-.22a9,9,0,0,1-1.81,0,21.35,21.35,0,0,0-3.17.33c-.59,0-2.27-.24-2.27-.24a1.12,1.12,0,0,1-.28.24C54,89.57,54,89,54,88.4,55.75,83.64,59.73,79.4,62.89,74.84Z" transform="translate(7.43 -59.35)"/><path class="cls-57" d="M47.52,61.65c-1.18,5.07-2.33,10.14-3.18,15.21-1.22,4.74-.86,9.51-.84,14.27-2.33,0-9.47-.47-9.47-.47l-.28,0a30,30,0,0,0,.14-6.49c0-.44,0-.88,0-1.32,1.41-7.31,5.46-14.4,9.4-21.19Z" transform="translate(7.43 -59.35)"/><path class="cls-58" d="M42.28,68.08c-2.22,1.26-3.17,3.63-4.22,5.45-1.2,2.06-2.34,4.14-3.37,6.25C36.5,73.56,40,67.52,43.33,61.69l4.19,0c-.58,2.49-1.16,5-1.69,7.49a19.16,19.16,0,0,0-3.09-1.24A.35.35,0,0,0,42.28,68.08Z" transform="translate(7.43 -59.35)"/><path class="cls-59" d="M33.33,71.72c.41-1.27.76-2.55,1.25-3.81a38.41,38.41,0,0,0,2.06-6.16l6.69-.06c-3.94,6.79-8,13.88-9.4,21.19a30.51,30.51,0,0,0-.56-6.3A9,9,0,0,1,33.33,71.72Z" transform="translate(7.43 -59.35)"/><path class="cls-60" d="M36.4,66.73a.42.42,0,0,0-.6,0,16.72,16.72,0,0,0-2.26,7.07c-.11.77-.19,1.54-.26,2.31a8.36,8.36,0,0,1,0-4.41c.41-1.27.76-2.55,1.25-3.81a38.41,38.41,0,0,0,2.06-6.16l6.69-.06c-1.64,2.84-3.3,5.73-4.79,8.66a5,5,0,0,0,.14-2.1.23.23,0,0,0-.16-.19,9.35,9.35,0,0,0-2-1.28Z" transform="translate(7.43 -59.35)"/><path class="cls-61" d="M43.82,79.42c.13-.85.3-1.7.52-2.56.85-5.07,2-10.14,3.18-15.21l5.58-.06C51,65.82,50,70.29,49,74.68A54.09,54.09,0,0,0,43.82,79.42Z" transform="translate(7.43 -59.35)"/><path class="cls-62" d="M43.82,79.42A54.09,54.09,0,0,1,49,74.68c1-4.39,1.94-8.86,4.06-13.09l3.06,0c-.62,9.58-2.75,19.13-2.09,28.6a2.19,2.19,0,0,1-1.11.32c-1,0-8.51.25-8.74.57a1.8,1.8,0,0,1-.72.08C43.49,87.23,43.24,83.32,43.82,79.42Z" transform="translate(7.43 -59.35)"/><path class="cls-63" d="M-5.1,81.43c1.16,1.83,2.51,3,5.36,2.16,1.49-.47,3-.91,4.47-1.43s4.1-1.76,5.68-1,2.29,1.77,3.65,2.5a9.55,9.55,0,0,0,3.78,1c2.06.17,5.48.73,6.43-1.19a4,4,0,0,0,.27-2.58c-.28-1.45-1.37-3.23.05-4.53a14.31,14.31,0,0,0,3.11-4.34,9.13,9.13,0,0,1-.51,3.4c-.39.93-1.09,2-.87,3v0c.4,1.82,2.28,3.49,2,5.38-.2,1.38-.75,2.85.15,4.15a.49.49,0,0,0,.6.07c3.32-2,3.9-5.5,3.63-8.42-.17-1.86-.86-3.69-.47-5.58a18.06,18.06,0,0,1,2.22-5.2,22.18,22.18,0,0,0-.35,2.56c-.11,1.46-.68,3.71.45,5a.48.48,0,0,0,.6.06,7.42,7.42,0,0,0,1.57-1.54c-1.16,3.38-1.58,7-.43,10.12a.4.4,0,0,0,.46.21,10.7,10.7,0,0,0,4.56-1.76,5.87,5.87,0,0,0,1.88-3.68,58.44,58.44,0,0,1,2.46-8.22A20.84,20.84,0,0,0,45.51,76a.36.36,0,0,0,.47.28,12.5,12.5,0,0,0,3.34-1.56c-1.58,1.73-3.58,3.32-4,5.4-.35,1.63-.8,4.33,1.85,5,1.72.43,5.25,1,6.2-.62.66-1.16.49-2.38.84-3.59a.29.29,0,0,0,0-.09,18.4,18.4,0,0,0,.22,3.7c0,.3.62.26.73,0a62.41,62.41,0,0,1,5.28-8.45c1.28-1.88,2.27-3.87,3.66-5.71a43.13,43.13,0,0,0,0,9.77c.19,1.89,0,3.8.22,5.68,0,.39.16,1,.92.9a2.85,2.85,0,0,0,2.05-2.1,18.8,18.8,0,0,1,1.22-3.79,38.36,38.36,0,0,0,3-8.41c.09,1.66.2,3.33.28,5,.08,1.88-.11,3.84,1,5.57a.44.44,0,0,0,.73-.13c.42-3.26-.84-6.83.57-10,.3,2.44.58,4.88,1,7.32.12.67.32,4,1.94,4,2.39-.09,1.89-3,1.71-4.08a5.42,5.42,0,0,1-.2-1.79,7.13,7.13,0,0,1,1.78-2.86,20.58,20.58,0,0,0,2.19-4,23.17,23.17,0,0,1,2.88,6.89c.34,1.47,1.22,2.61,3.5,2.14a2,2,0,0,0,1.43-1.33,29.3,29.3,0,0,1,1.47-3.83,33.41,33.41,0,0,1,4.43-5.78,11.21,11.21,0,0,0-.66,4.65,10,10,0,0,0,2.21,5.4.45.45,0,0,0,.7-.06c1.06-1.76,0-3.63.21-5.45a17.29,17.29,0,0,1,2.15-5.6c-.17,1.46-.33,3-.44,3.26a3.8,3.8,0,0,0,1,2.37c1,1,3.51,3.72,4.4,4.64s3.66,2.19,4.76,2.83,3.76,2,3.76,2A9.19,9.19,0,0,1,112,84.75c-1,.24-7.13,1.68-8.4,2.33,0,0-3-.11-3.87,0a27.54,27.54,0,0,0-3.5.87c-.79.2-6.28.26-6.28.26l-2.25.94-3.36-.54s-5.59.47-5.69.42-2.89-.22-2.89-.22a16.83,16.83,0,0,1-2.29.71,13.37,13.37,0,0,1-2.75.23,12.23,12.23,0,0,0-2.94.24s-3.44.11-4.78.78l-1.4-.87a9,9,0,0,1-1.81,0,21.35,21.35,0,0,0-3.17.33c-.59,0-2.27-.24-2.27-.24a1.83,1.83,0,0,1-1.39.56c-1,0-8.51.25-8.74.57S34,90.66,34,90.66s-4.57.46-5.45.61-2,.23-2,.23l-3.27.66L11.51,91.8l-8.4.37s-5.75-.83-6-.88-4.54-.06-4.54-.06l.58-14.4A13.54,13.54,0,0,0-5.1,81.43Z" transform="translate(7.43 -59.35)"/><path class="cls-64" d="M-6.95,83.5c.14,1.09.06,2.2.22,3.29.25,1.77,2,3.6,4.34,1.87C-.92,87.58-.34,86,1.18,84.94a17,17,0,0,1,6.18-2.57c2.93-.45,4.84,1.06,6.47,2.63,1.42,1.37,2.83,3,5,3.87,1.62.61,4.2,1,5.58-.22,1.59-1.38,1.72-3.44,1.68-5.16a26.89,26.89,0,0,0-.39-3.8A11.78,11.78,0,0,1,27,82.89c.38,2.14-.48,4.27.29,6.39a.4.4,0,0,0,.46.2c1.49-.35,3.53-.44,4.57-1.43,1.31-1.26,1.58-2.89,2-4.44a19.13,19.13,0,0,0,.23,2.81c.19,1.3.43,2.79,2.73,2.4,2.45-.4,4.49-1.29,5.44-3.08a26.82,26.82,0,0,0,1.5-4.54A8.7,8.7,0,0,0,44.63,84,6.61,6.61,0,0,0,48,87.38c1,.52,3.05,1.6,4.22.66a6.45,6.45,0,0,0,2-3.4,20.41,20.41,0,0,0,.06,2.59,1.82,1.82,0,0,0,.45,1.19c.83.83,3.88-.11,4.74-.49,1.55-.7,1.87-2.19,2.1-3.4a38.72,38.72,0,0,1,1.49-6c0,1.35.1,2.69.24,4a13.08,13.08,0,0,1,0,4c-.21,1-.48,3.22,1.85,2.8,2-.34,2.92-2.16,3.56-3.89A5,5,0,0,0,69,87.91a.43.43,0,0,0,.47.2c3-.34,2.89-3,2.84-5.23.75,2.26,2.07,5,5.31,4.42,4.26-.75,6.18-3.54,7.46-6.51.1,1.31.69,2.32,2.72,1.75s2.67-2.11,3.35-3.6a6.56,6.56,0,0,0,1,2.44,7.37,7.37,0,0,0,3.91,3c.25.1.59,0,.59-.24,0-2-.61-3.61-1-5.74,2.25,3.44,4.41,7.61,10.77,6.78,1.94-.25,4.45-.41,6-1.45a1.21,1.21,0,0,0,.63-.83l1.32.68A9.19,9.19,0,0,1,112,84.75c-1,.24-7.13,1.68-8.4,2.33,0,0-3-.11-3.87,0a27.54,27.54,0,0,0-3.5.87c-.79.2-6.28.26-6.28.26l-2.25.94-3.36-.54s-5.59.47-5.69.42-2.89-.22-2.89-.22a16.83,16.83,0,0,1-2.29.71,13.37,13.37,0,0,1-2.75.23,12.23,12.23,0,0,0-2.94.24s-3.44.11-4.78.78l-1.4-.87a9,9,0,0,1-1.81,0,21.35,21.35,0,0,0-3.17.33c-.59,0-2.27-.24-2.27-.24a1.83,1.83,0,0,1-1.39.56c-1,0-8.51.25-8.74.57S34,90.66,34,90.66s-4.57.46-5.45.61-2,.23-2,.23l-3.27.66L11.51,91.8l-8.4.37s-5.75-.83-6-.88-4.54-.06-4.54-.06l.35-8.69C-7,82.86-7,83.18-6.95,83.5Z" transform="translate(7.43 -59.35)"/><path class="cls-5" d="M-6.34,59.7s4.16.09,6.32.08a69.72,69.72,0,0,1,7.27.83s5-.35,6.3-.64,1.18.24,2.68,0,2.26-.28,2.26-.28a15.5,15.5,0,0,0-2.55,1.4c-.65.54-1.31,1.41-1.56,1.55A23.1,23.1,0,0,0,17,61.6c.32-.22,2-1.55,2-1.55a6.59,6.59,0,0,0,2.31,0s3.18,0,5.3.07a29.79,29.79,0,0,0,5.45-.24c2.25-.24,9.1.13,9.1.13s7.68,0,9.62,0,2.46-.17,3.54-.25,4.69.35,5.81.45a16.56,16.56,0,0,0,3.11.4c.88-.11,2.39-.32,3.2-.4a10.72,10.72,0,0,0,2.27-.66,16.22,16.22,0,0,1,4.6.66,21.37,21.37,0,0,0,4.8.16c1.12,0,6.13-.38,8.17.06a14,14,0,0,0,4.18.29c1.93,0,8.73.39,8.73.39s.87,1.36.48,1.68-1.26.26-2.19.25-6.56.05-7.8-.06a22.44,22.44,0,0,0-4.39.35c-1.13.17-.54,1.06-2.4.85a29.75,29.75,0,0,0-3.75,0,9.44,9.44,0,0,0-2.7.35,23.25,23.25,0,0,0-5.29-1.87l2.1,2.11a15.52,15.52,0,0,1-3,.28,21.81,21.81,0,0,0-3.2.37c-1,.08-2.82.38-3.51.51s-3.33.46-4,.45a3.58,3.58,0,0,0-1.59.68c-.26.13-1.64,1.87-2.2,2s-2.31-.12-3.12,0-5.8.8-6.38.75a15.7,15.7,0,0,0-4-2.47l-2.41.85-4.32-2.65a16.39,16.39,0,0,1-1.59.63c-.82.26-4.4.63-5,.9s-.93,1.37-1.25,1.55-.82.13-2.17-.21a41,41,0,0,0-5.3-.3c-1.18-.11-4.56.16-4.75.11s-1.52-1-2.44-1.46-1.34-.76-1.86-.21-1.56,1.59-1.82,1.82-1.13.08-2.18-.21a16.36,16.36,0,0,0-3.11-.23c-1.31-.11-2.87-.18-2.87-.18s-4.13.18-5.88.34a12.55,12.55,0,0,1-2,.11Z" transform="translate(7.43 -59.35)"/><path class="cls-65" d="M-6.34,59.7s4.16.09,6.32.08a69.72,69.72,0,0,1,7.27.83s5-.35,6.3-.64,1.18.24,2.68,0,2.26-.28,2.26-.28a15.5,15.5,0,0,0-2.55,1.4c-.65.54-1.31,1.41-1.56,1.55A23.1,23.1,0,0,0,17,61.6c.32-.22,2-1.55,2-1.55a6.59,6.59,0,0,0,2.31,0s3.18,0,5.3.07a29.79,29.79,0,0,0,5.45-.24c2.25-.24,9.1.13,9.1.13s7.68,0,9.62,0,2.46-.17,3.54-.25,4.69.35,5.81.45a16.56,16.56,0,0,0,3.11.4c.88-.11,2.39-.32,3.2-.4a10.72,10.72,0,0,0,2.27-.66,16.22,16.22,0,0,1,4.6.66,21.37,21.37,0,0,0,4.8.16c1.12,0,6.13-.38,8.17.06a14,14,0,0,0,4.18.29c1.93,0,8.73.39,8.73.39s.87,1.36.48,1.68-1.26.26-2.19.25-6.56.05-7.8-.06a22.44,22.44,0,0,0-4.39.35c-1.13.17-.54,1.06-2.4.85a29.75,29.75,0,0,0-3.75,0,9.44,9.44,0,0,0-2.7.35,23.25,23.25,0,0,0-5.29-1.87l2.1,2.11a15.52,15.52,0,0,1-3,.28,21.81,21.81,0,0,0-3.2.37c-1,.08-2.82.38-3.51.51s-3.33.46-4,.45a3.58,3.58,0,0,0-1.59.68c-.26.13-1.64,1.87-2.2,2s-2.31-.12-3.12,0-5.8.8-6.38.75a15.7,15.7,0,0,0-4-2.47l-2.41.85-4.32-2.65a16.39,16.39,0,0,1-1.59.63c-.82.26-4.4.63-5,.9s-.93,1.37-1.25,1.55-.82.13-2.17-.21a41,41,0,0,0-5.3-.3c-1.18-.11-4.56.16-4.75.11s-1.52-1-2.44-1.46-1.34-.76-1.86-.21-1.56,1.59-1.82,1.82-1.13.08-2.18-.21a16.36,16.36,0,0,0-3.11-.23c-1.31-.11-2.87-.18-2.87-.18s-4.13.18-5.88.34a12.55,12.55,0,0,1-2,.11Z" transform="translate(7.43 -59.35)"/><path class="cls-66" d="M-6.34,59.7s4.16.09,6.32.08a69.72,69.72,0,0,1,7.27.83s5-.35,6.3-.64,1.18.24,2.68,0,2.26-.28,2.26-.28a15.5,15.5,0,0,0-2.55,1.4c-.65.54-1.31,1.41-1.56,1.55A23.1,23.1,0,0,0,17,61.6c.32-.22,2-1.55,2-1.55a6.59,6.59,0,0,0,2.31,0s3.18,0,5.3.07a29.79,29.79,0,0,0,5.45-.24c2.25-.24,9.1.13,9.1.13s7.68,0,9.62,0,2.46-.17,3.54-.25,4.69.35,5.81.45a16.56,16.56,0,0,0,3.11.4c.88-.11,2.39-.32,3.2-.4a10.72,10.72,0,0,0,2.27-.66,16.22,16.22,0,0,1,4.6.66,21.37,21.37,0,0,0,4.8.16c1.12,0,6.13-.38,8.17.06a14,14,0,0,0,4.18.29c1.93,0,8.73.39,8.73.39s.87,1.36.48,1.68-1.26.26-2.19.25-6.56.05-7.8-.06a22.44,22.44,0,0,0-4.39.35c-1.13.17-.54,1.06-2.4.85a29.75,29.75,0,0,0-3.75,0,9.44,9.44,0,0,0-2.7.35,23.25,23.25,0,0,0-5.29-1.87l2.1,2.11a15.52,15.52,0,0,1-3,.28,21.81,21.81,0,0,0-3.2.37c-1,.08-2.82.38-3.51.51s-3.33.46-4,.45a3.58,3.58,0,0,0-1.59.68c-.26.13-1.64,1.87-2.2,2s-2.31-.12-3.12,0-5.8.8-6.38.75a15.7,15.7,0,0,0-4-2.47l-2.41.85-4.32-2.65a16.39,16.39,0,0,1-1.59.63c-.82.26-4.4.63-5,.9s-.93,1.37-1.25,1.55-.82.13-2.17-.21a41,41,0,0,0-5.3-.3c-1.18-.11-4.56.16-4.75.11s-1.52-1-2.44-1.46-1.34-.76-1.86-.21-1.56,1.59-1.82,1.82-1.13.08-2.18-.21a16.36,16.36,0,0,0-3.11-.23c-1.31-.11-2.87-.18-2.87-.18s-4.13.18-5.88.34a12.55,12.55,0,0,1-2,.11Z" transform="translate(7.43 -59.35)"/><path class="cls-35" d="M80,64.1a14.08,14.08,0,0,0,3.38-.5c1.28-.4,2.33-1.27,3.77-1.31,1.73,0,3.46.18,5.2.18a48.75,48.75,0,0,1,6.17.25c.2,0,.43,0,.48-.19a3.34,3.34,0,0,0,.1-1.39h.16s.87,1.36.48,1.68-1.26.26-2.19.25-6.56.05-7.8-.06a22.44,22.44,0,0,0-4.39.35c-1.13.17-.54,1.06-2.4.85a29.75,29.75,0,0,0-3.75,0,9.44,9.44,0,0,0-2.7.35s-.64-.31-1.55-.69A27.39,27.39,0,0,0,80,64.1Z" transform="translate(7.43 -59.35)"/><path class="cls-35" d="M-.79,67a16.66,16.66,0,0,0,6.25-2.8,4.39,4.39,0,0,1-1.55,2.15.21.21,0,0,0,0,.38.25.25,0,0,0-.11.18V67c0,.16.16.27.37.29a1.7,1.7,0,0,0,.72-.11,13.67,13.67,0,0,0,3.78,0,15.43,15.43,0,0,0,3.21-1.58,9.85,9.85,0,0,0,3.87,1.6c1.07.11,2.15-.12,3.23-.07s2.3.19,3.45.3a18.05,18.05,0,0,0,3.45.13,4,4,0,0,0,1.35-.28c.55-.26.35-.58,1.3-.7a43.23,43.23,0,0,0,7.06-1.71,20.53,20.53,0,0,0,3.54,2,3.7,3.7,0,0,0,3.37-.7A18.26,18.26,0,0,0,48,68.55a15.52,15.52,0,0,0,7.14-.74c1.29-.51,2.26-1.35,3.53-1.84a19.15,19.15,0,0,1,4.38-1c2.86-.36,5.75-.44,8.63-.65.3,0,.46-.21.34-.42s-.24-.42-.38-.62l.16,0,1.48,1.48a15.52,15.52,0,0,1-3,.28,21.81,21.81,0,0,0-3.2.37c-1,.08-2.82.38-3.51.51s-3.33.46-4,.45a3.58,3.58,0,0,0-1.59.68c-.26.13-1.64,1.87-2.2,2s-2.31-.12-3.12,0-5.8.8-6.38.75a15.7,15.7,0,0,0-4-2.47l-2.41.85-4.32-2.65a16.39,16.39,0,0,1-1.59.63c-.82.26-4.4.63-5,.9s-.93,1.37-1.25,1.55-.82.13-2.17-.21a41,41,0,0,0-5.3-.3c-1.18-.11-4.56.16-4.75.11s-1.52-1-2.44-1.46-1.34-.76-1.86-.21-1.56,1.59-1.82,1.82-1.13.08-2.18-.21a16.36,16.36,0,0,0-3.11-.23c-1.31-.11-2.87-.18-2.87-.18s-4.13.18-5.88.34a12.55,12.55,0,0,1-2,.11l0-1A34.7,34.7,0,0,0-.79,67Z" transform="translate(7.43 -59.35)"/><path class="cls-67" d="M5.63,65.55c-.75.43-1.48.88-2.24,1.33-.45.27-.9.54-1.31.84l-.83,0-1.83.09A9.84,9.84,0,0,0,2,66.67c.7-.46,1.34-1,2.09-1.38a17.33,17.33,0,0,0,2.13-1.14c.55-.45.91-.93,1.49-1.33a4.81,4.81,0,0,0-.73,1.4A7.49,7.49,0,0,1,5.63,65.55Z" transform="translate(7.43 -59.35)"/></g></g></g></svg>