<svg xmlns="http://www.w3.org/2000/svg" xmlns:xlink="http://www.w3.org/1999/xlink" viewBox="0 0 1920 1959.25"><defs><style>.cls-1{isolation:isolate;}.cls-2{fill:url(#radial-gradient);}.cls-3{opacity:0.8;mix-blend-mode:screen;}.cls-4{fill:url(#linear-gradient);}.cls-5{fill:url(#linear-gradient-2);}.cls-11,.cls-12,.cls-13,.cls-14,.cls-15,.cls-16,.cls-29,.cls-30,.cls-31,.cls-32,.cls-33,.cls-34,.cls-35,.cls-6{opacity:0.5;}.cls-6{fill:url(#linear-gradient-3);}.cls-7{fill:url(#linear-gradient-4);}.cls-8{fill:url(#linear-gradient-5);}.cls-9{fill:url(#linear-gradient-6);}.cls-10{fill:url(#linear-gradient-7);}.cls-11{fill:url(#linear-gradient-8);}.cls-12{fill:url(#linear-gradient-9);}.cls-13{fill:url(#linear-gradient-10);}.cls-14{fill:url(#linear-gradient-11);}.cls-15{fill:url(#linear-gradient-12);}.cls-16{fill:url(#linear-gradient-13);}.cls-17{fill:url(#linear-gradient-14);}.cls-18{fill:url(#linear-gradient-15);}.cls-19{fill:url(#linear-gradient-16);}.cls-20{fill:url(#linear-gradient-17);}.cls-21{fill:url(#linear-gradient-18);}.cls-22{fill:url(#linear-gradient-19);}.cls-23{fill:url(#linear-gradient-20);}.cls-24{fill:url(#linear-gradient-21);}.cls-25{fill:url(#linear-gradient-22);}.cls-26{fill:url(#linear-gradient-23);}.cls-27{fill:url(#linear-gradient-24);}.cls-28{fill:url(#linear-gradient-25);}.cls-29{fill:url(#linear-gradient-26);}.cls-30{fill:url(#linear-gradient-27);}.cls-31{fill:url(#linear-gradient-28);}.cls-32{fill:url(#linear-gradient-29);}.cls-33{fill:url(#linear-gradient-30);}.cls-34{fill:url(#linear-gradient-31);}.cls-35{fill:url(#linear-gradient-32);}</style><radialGradient id="radial-gradient" cx="252.28" cy="251.92" r="134.71" gradientTransform="translate(-1384.91 -4310.72) scale(9.26 16.86)" gradientUnits="userSpaceOnUse"><stop offset="0" stop-color="#019392"/><stop offset="0.57" stop-color="#01748a"/><stop offset="1" stop-color="#005064"/></radialGradient><linearGradient id="linear-gradient" x1="66.03" y1="68.46" x2="330.3" y2="68.46" gradientTransform="translate(355.81) scale(1.35 1)" gradientUnits="userSpaceOnUse"><stop offset="0.35" stop-color="#dbe9e9"/><stop offset="1" stop-color="#288da1"/></linearGradient><linearGradient id="linear-gradient-2" x1="357.91" y1="86.94" x2="443.63" y2="86.94" xlink:href="#linear-gradient"/><linearGradient id="linear-gradient-3" x1="559.64" y1="66.09" x2="617.48" y2="66.09" xlink:href="#linear-gradient"/><linearGradient id="linear-gradient-4" x1="207.31" y1="65.23" x2="308.82" y2="65.23" xlink:href="#linear-gradient"/><linearGradient id="linear-gradient-5" x1="308.94" y1="92.8" x2="477.99" y2="92.8" xlink:href="#linear-gradient"/><linearGradient id="linear-gradient-6" x1="-77.95" y1="88.05" x2="-0.19" y2="88.05" xlink:href="#linear-gradient"/><linearGradient id="linear-gradient-7" x1="16.4" y1="69.35" x2="99.32" y2="69.35" xlink:href="#linear-gradient"/><linearGradient id="linear-gradient-8" x1="481.98" y1="73.65" x2="542.73" y2="73.65" xlink:href="#linear-gradient"/><linearGradient id="linear-gradient-9" x1="641.04" y1="70.29" x2="724.2" y2="70.29" xlink:href="#linear-gradient"/><linearGradient id="linear-gradient-10" x1="770.59" y1="83.67" x2="891.33" y2="83.67" xlink:href="#linear-gradient"/><linearGradient id="linear-gradient-11" x1="918.36" y1="82.26" x2="956.34" y2="82.26" xlink:href="#linear-gradient"/><linearGradient id="linear-gradient-12" x1="978.79" y1="73.18" x2="992.14" y2="73.18" xlink:href="#linear-gradient"/><linearGradient id="linear-gradient-13" x1="1031.69" y1="69.68" x2="1104.28" y2="69.68" xlink:href="#linear-gradient"/><linearGradient id="linear-gradient-14" x1="-239.07" y1="77.13" x2="-125.22" y2="77.13" xlink:href="#linear-gradient"/><linearGradient id="linear-gradient-15" x1="-102.51" y1="82.05" x2="-82.93" y2="82.05" xlink:href="#linear-gradient"/><linearGradient id="linear-gradient-16" x1="-18.76" y1="88.98" x2="44.09" y2="88.98" xlink:href="#linear-gradient"/><linearGradient id="linear-gradient-17" x1="62.24" y1="76.85" x2="163.44" y2="76.85" xlink:href="#linear-gradient"/><linearGradient id="linear-gradient-18" x1="26.83" y1="93.25" x2="83.83" y2="93.25" xlink:href="#linear-gradient"/><linearGradient id="linear-gradient-19" x1="-57.63" y1="103.8" x2="-40.52" y2="103.8" xlink:href="#linear-gradient"/><linearGradient id="linear-gradient-20" x1="-108.19" y1="93.19" x2="-65.32" y2="93.19" xlink:href="#linear-gradient"/><linearGradient id="linear-gradient-21" x1="151.59" y1="49.17" x2="183.5" y2="49.17" xlink:href="#linear-gradient"/><linearGradient id="linear-gradient-22" x1="135.19" y1="77.83" x2="196.89" y2="77.83" xlink:href="#linear-gradient"/><linearGradient id="linear-gradient-23" x1="272.34" y1="94.06" x2="314.72" y2="94.06" xlink:href="#linear-gradient"/><linearGradient id="linear-gradient-24" x1="253.14" y1="91.21" x2="461.68" y2="91.21" xlink:href="#linear-gradient"/><linearGradient id="linear-gradient-25" x1="451.9" y1="105.74" x2="483.83" y2="105.74" xlink:href="#linear-gradient"/><linearGradient id="linear-gradient-26" x1="495.12" y1="75.7" x2="584.62" y2="75.7" xlink:href="#linear-gradient"/><linearGradient id="linear-gradient-27" x1="581.08" y1="73.86" x2="656.31" y2="73.86" xlink:href="#linear-gradient"/><linearGradient id="linear-gradient-28" x1="700.11" y1="82.59" x2="789.29" y2="82.59" xlink:href="#linear-gradient"/><linearGradient id="linear-gradient-29" x1="759.78" y1="91.12" x2="821.6" y2="91.12" xlink:href="#linear-gradient"/><linearGradient id="linear-gradient-30" x1="872.56" y1="97.61" x2="924.67" y2="97.61" xlink:href="#linear-gradient"/><linearGradient id="linear-gradient-31" x1="989.31" y1="80.22" x2="1001.44" y2="80.22" xlink:href="#linear-gradient"/><linearGradient id="linear-gradient-32" x1="1116.94" y1="78.71" x2="1150.13" y2="78.71" xlink:href="#linear-gradient"/></defs><title>Untitled-2</title><g class="cls-1"><g id="Layer_1" data-name="Layer 1"><path class="cls-2" d="M1920,2000V79.33c-96.31,35.49-206.6-41-304.53-11.74C1457.17,114.94,1338,77,1204.35,56.84,1053.62,34.1,902.13,115.23,753.14,75c-44.71-12.07-89.08-25.93-134.52-32.1S529.48,44.58,485,57.19c-74.23,21-111.76,45.62-237.26,14.27C165.28,50.8,83,83.37,0,98.77V2000Z" transform="translate(0 -40.75)"/><g class="cls-3"><path class="cls-4" d="M798,75.71c-30.42-1.08-60.78,1.37-91.23.54-32.91-.83-62.28-8.09-93.39-15.59-26.34-6.32-51.46-9.1-78.8-5.4-30.31,4.14-58.47,15.29-88.76,19.9-1.77.27-1.35,2.48.41,2.44,27.51-.89,52.79-9.48,79.65-13.35,32.7-4.68,63,2.59,93.82,10.2,57.23,14.12,119.47,7.77,178.3,5.12C801.21,79.42,801.24,75.83,798,75.71Z" transform="translate(0 -40.75)"/><path class="cls-5" d="M952.15,84.87c-17.87,2.79-36.24,3.42-54.47,3.08-10.89-.22-22.09-2.42-32.9-3.66-9.26-1.08-17.35.25-26.86-1.67-.35-.09-.46.27-.15.38a100.16,100.16,0,0,0,21.48,3.42c11.28.72,22.1,3.63,33.35,4.39a201,201,0,0,0,59.91-4.93C953.34,85.69,953,84.76,952.15,84.87Z" transform="translate(0 -40.75)"/><path class="cls-6" d="M1186.3,64.17c-25.51-.14-50.86,2-76.34,2.48-1.09,0-1.1,1.35,0,1.35,25.5.12,50.84-2.18,76.34-2.67C1187.24,65.3,1187.24,64.17,1186.3,64.17Z" transform="translate(0 -40.75)"/><path class="cls-7" d="M770.26,71.17C725.41,65.58,679,68.63,635.55,56.6c-.57-.14-1,.56-.41.78,42.75,14.72,89.12,12.41,134.67,16.48C771.76,74,772.21,71.42,770.26,71.17Z" transform="translate(0 -40.75)"/><path class="cls-8" d="M997.15,85c-38.8,3.77-73.28,14.46-113,10.52-20.65-2.06-39.18-7.38-59.37-10.58C808,82.27,790,85,773.14,85.5c-1.95.07-2,2.34,0,2.34,20.69.14,41.23-1.73,61.13,3.81a295.91,295.91,0,0,0,49.87,9.09c39.13,4.07,76.16-3.87,113.58-12.45A1.68,1.68,0,1,0,997.15,85Z" transform="translate(0 -40.75)"/><path class="cls-9" d="M354.85,83.68c-16.69,3.92-33.9,5.16-51.29,5.13a259.48,259.48,0,0,1-26.91-1.87c-7.53-.79-17.21.66-23.87-2.45-1.48-.69-2.63,1-1.35,1.78,5.05,3,9.29,3.4,15.6,3.47,10.27.06,20.63,2,30.84,2.49a158.53,158.53,0,0,0,57.4-7.79C355.85,84.29,355.45,83.55,354.85,83.68Z" transform="translate(0 -40.75)"/><path class="cls-10" d="M487.73,58.21c-37.18,1.66-72.13,13.53-108.38,19.22-2.57.4-1.48,3.39,1.09,3,36.34-5.28,71.18-15,107.78-19.51C490.23,60.69,489.74,58.14,487.73,58.21Z" transform="translate(0 -40.75)"/><path class="cls-11" d="M1085.08,67.55c-13.19,1.35-26.43,2.54-39.56,4.45s-26.46,6.58-40.12,6.28c-1.09,0-1,1.23,0,1.32,10.92.89,20.84-2.1,31.18-4.47,15.73-3.61,32.9-2.21,48.85-5.5A1.06,1.06,0,1,0,1085.08,67.55Z" transform="translate(0 -40.75)"/><path class="cls-12" d="M1329.44,75.09c-17.53-2.91-35.09-5.64-52.63-8.44-18.91-3-38.22-1.3-57.12-3.77-1-.12-1.39.95-.44,1.16,18.49,3.79,37.21,4.59,56,7,17.89,2.32,35.68,5.14,53.73,6.67C1330.91,77.84,1331.32,75.38,1329.44,75.09Z" transform="translate(0 -40.75)"/><path class="cls-13" d="M1554.65,85.91c-28-.69-55.89,1-83.88.7-26.1-.23-50.7-8.21-77.07-6.89-.79.06-.82,1,0,1,26.12-.29,50.8,7,77.07,6.77,28-.3,55.87.79,83.88,0C1556,87.41,1556,85.92,1554.65,85.91Z" transform="translate(0 -40.75)"/><path class="cls-14" d="M1642.44,78.51c-16.62,2.08-33.3,3.86-49.85,6.26-1,.15-.59,1.38.44,1.23,16.5-2.54,33.31-3.78,49.71-6.64C1643.45,79.21,1643.11,78.44,1642.44,78.51Z" transform="translate(0 -40.75)"/><path class="cls-15" d="M1690.53,70.7c-5.51,1.34-11.13,2.42-16.62,3.81-1,.23-.54,1.38.39,1.14,5.5-1.42,11.1-2.48,16.57-4C1691.67,71.47,1691.34,70.5,1690.53,70.7Z" transform="translate(0 -40.75)"/><path class="cls-16" d="M1840.66,70.76c-30.54-7.89-63.82-6.13-95.2-2.86-1.16.1-1.21,1.51,0,1.44,31.77-1.8,62.7.29,94,4.85C1842.34,74.63,1843.48,71.49,1840.66,70.76Z" transform="translate(0 -40.75)"/><path class="cls-17" d="M186.17,76.47c-23.65-6.34-48.16-4.33-72.61-2.59-26.36,1.88-53,3-79,7.06-.85.13-.63,1.22.21,1.17,24.5-1.4,48.85-3.43,73.38-4.24,26.21-.83,51.18-3.32,77.22.94C187.28,79.14,188.06,77,186.17,76.47Z" transform="translate(0 -40.75)"/><path class="cls-18" d="M242.72,81.26c-7.87-2-16.93-2.39-24.35.8-1.12.45-.36,1.93.87,1.6,7.24-2,15.1-.25,22.36.69C244.2,84.67,245.28,81.91,242.72,81.26Z" transform="translate(0 -40.75)"/><path class="cls-19" d="M414.61,79.89C386.1,84.54,361.48,95.08,331.76,96c-1.61.07-1.61,1.83,0,1.93,28.78,1.64,55.59-12.62,83.08-17.39C415.39,80.46,415.17,79.82,414.61,79.89Z" transform="translate(0 -40.75)"/><path class="cls-20" d="M574.51,71.11a288.69,288.69,0,0,0-65.17.41,315.43,315.43,0,0,0-31.74,5.29c-12.93,2.91-24.14,7.44-38,7.25,0,0,0,.06,0,.06,19,.92,35.73-3.93,54-7.23,26.41-4.82,53.55-4.35,80.37-3C576,74,576.57,71.37,574.51,71.11Z" transform="translate(0 -40.75)"/><path class="cls-21" d="M467.83,88.57c-14.29,1.5-28.33.33-42.66.85-11.92.45-20.87,5.14-32.33,6.66-1.43.15-1,1.86.29,1.86,11.07-.07,21.05-3.79,32-4.41,14.39-.78,28.74-1.35,42.89-3.62A.68.68,0,1,0,467.83,88.57Z" transform="translate(0 -40.75)"/><path class="cls-22" d="M300.78,104c-7-3.24-14.57-1.69-22.11-1-.59.06-.59.68,0,.73,7.1.53,14.4,0,21.3,1.72C301.11,105.77,301.76,104.48,300.78,104Z" transform="translate(0 -40.75)"/><path class="cls-23" d="M267.07,93.74c-11.41-.53-22.84-.56-34.25-1.49-8.55-.66-14.65-2.93-22.42.55-.45.2-.14.82.36.66,8.18-2.12,17.65,1,26.1,1.55a267.07,267.07,0,0,0,30.21.07C268.16,95,268.16,93.8,267.07,93.74Z" transform="translate(0 -40.75)"/><path class="cls-24" d="M601.19,48.85c-13.46-3-26.59-2.79-40.45-2.85-1,0-1.22,1.19-.23,1.37,13.07,2.34,26.26,3.1,39.46,4.93C602.82,52.7,604.07,49.5,601.19,48.85Z" transform="translate(0 -40.75)"/><path class="cls-25" d="M619.37,77.38c-12.12-1.6-24.18-2.48-36.49-3-15.82-.62-28.3,3.11-43.72,4.72-1.77.18-1.91,2.25,0,2.24,12.75-.14,24.85-3,37.69-2.77,14,.23,28,1.64,42,1.94C621.11,80.59,621.68,77.7,619.37,77.38Z" transform="translate(0 -40.75)"/><path class="cls-26" d="M778.1,92c-18.06-.5-36.63,3.92-54.49.38-1.22-.26-1.72,1.16-.51,1.46,17.58,4.3,37,1.32,55,.32C779.89,94.11,779.92,92.08,778.1,92Z" transform="translate(0 -40.75)"/><path class="cls-27" d="M975.24,90.68c-23.4,2.83-46.28,6-70.09,5.53-24.58-.52-46.47-9.42-70.25-12.82-46.84-6.73-90.63,12.17-137.3,10.82-1.31,0-1.41,1.43-.13,1.59,45.94,5.36,90.53-9,136.58-3.1,23.86,3,46.45,7.16,70.71,7.73,23.88.54,48.2-2.25,71.17-7.08C978.1,92.91,977.49,90.41,975.24,90.68Z" transform="translate(0 -40.75)"/><path class="cls-28" d="M1004.55,99.68c-11.17,4.88-25.36,10.57-38.53,9.07-1.9-.22-2.74,1.8-.83,2.26,14,3.43,30.08-2.65,41.13-9C1008.09,101,1006.55,98.81,1004.55,99.68Z" transform="translate(0 -40.75)"/><path class="cls-29" d="M1141.48,68.89c-20.7-1.14-40.89,1.07-61.4,2.66-19.26,1.51-36.88,8.4-56.38,8.84-1.89,0-1.85,2.12,0,2.25,18.16,1.24,34.45-4.06,51.81-7.52,21.65-4.3,44-3,66-4.2C1143.19,70.85,1143.2,69,1141.48,68.89Z" transform="translate(0 -40.75)"/><path class="cls-30" d="M1238.5,75.35c-30.41-10.41-67-3.28-98.66-.48-2.39.23-2.51,3,0,3,33.7-.51,63.81-6.12,97.5-.35C1238.91,77.75,1240.12,75.89,1238.5,75.35Z" transform="translate(0 -40.75)"/><path class="cls-31" d="M1416.91,84.3c-39.33-1.5-78.66-.25-117.55-6-1.15-.16-1.61,1.16-.47,1.35a605.63,605.63,0,0,0,118,6.86C1418.73,86.39,1418.73,84.35,1416.91,84.3Z" transform="translate(0 -40.75)"/><path class="cls-32" d="M1460.53,91.83c-12.45-2.31-25-3-37.8-3.17-13.69-.2-28.44,1.9-41.78-.86-2.44-.51-3.42,2.34-1,2.91,10,2.44,20,1.87,30.36,1.71a483.49,483.49,0,0,1,49.8,2.07A1.35,1.35,0,1,0,1460.53,91.83Z" transform="translate(0 -40.75)"/><path class="cls-33" d="M1599.17,94.88c-21.58,2.93-46,3.65-67.47,0-1.35-.22-1.91,1.33-.57,1.65,21.9,4.74,46.82,5.49,68.62,0C1601.08,96.16,1600.52,94.7,1599.17,94.88Z" transform="translate(0 -40.75)"/><path class="cls-34" d="M1701.91,77.77c-4.25,1.34-9,1.38-13.28,2.53-1.92.55-1.18,2.82.85,2.41,4.52-1,9.38-1.06,13.61-2.71C1704.65,79.36,1703.54,77.25,1701.91,77.77Z" transform="translate(0 -40.75)"/><path class="cls-35" d="M1902.15,78.2c-13.18-3.45-26.83-3.65-40.54-2.42-3,.29-3,3.43,0,3.72,13.26,1.21,26.6,1.47,39.83,2.81C1904.58,82.64,1904.85,78.93,1902.15,78.2Z" transform="translate(0 -40.75)"/></g></g></g></svg>